<?xml version="1.0" encoding="utf-8"?>
<!-- Generator: Adobe Illustrator 17.0.0, SVG Export Plug-In . SVG Version: 6.00 Build 0)  -->
<!DOCTYPE svg PUBLIC "-//W3C//DTD SVG 1.1//EN" "http://www.w3.org/Graphics/SVG/1.1/DTD/svg11.dtd">
<svg version="1.1" id="Calque_1" xmlns="http://www.w3.org/2000/svg" xmlns:xlink="http://www.w3.org/1999/xlink" x="0px" y="0px"
	 width="1840.167px" height="1209.927px" viewBox="0 0 1840.167 1209.927" enable-background="new 0 0 1840.167 1209.927"
	 xml:space="preserve">
<rect x="510.517" y="260.927" fill="none" stroke="#FFD25A" stroke-width="2" stroke-miterlimit="10" width="156" height="117"/>
<rect x="323.517" y="260.927" fill="none" stroke="#FFD25A" stroke-width="2" stroke-miterlimit="10" width="156" height="117"/>
<rect x="697.517" y="260.927" fill="none" stroke="#FFD25A" stroke-width="2" stroke-miterlimit="10" width="156" height="117"/>
<rect x="24.852" y="317.021" fill="none" width="106.132" height="14.485"/>
<text transform="matrix(1 0 0 1 30.5582 325.7813)" font-family="'Gotham-Black'" font-size="12">Protagoniste</text>
<rect x="248.867" y="145.782" fill="none" width="106.132" height="14.485"/>
<text transform="matrix(1 0 0 1 317.8604 154.5417)" font-family="'Gotham-Black'" font-size="12">crise</text>
<rect x="525.5" y="145.782" fill="none" width="106.132" height="14.485"/>
<text transform="matrix(1 0 0 1 610.5131 154.5417)" font-family="'Gotham-Black'" font-size="12">fin</text>
<rect x="765.878" y="142.092" fill="none" width="106.132" height="14.485"/>
<text transform="matrix(1 0 0 1 781.1237 150.8519)" font-family="'Gotham-Black'" font-size="12">renaissance</text>
<rect x="511" y="215.635" fill="none" width="132.607" height="33.35"/>
<text transform="matrix(1 0 0 1 510.9998 224.3948)"><tspan x="0" y="0" font-family="'Gotham-Medium'" font-size="12">Envie de transmettre</tspan><tspan x="0" y="17" font-family="'Gotham-Book'" font-size="10">Lieux / Messages</tspan></text>
<rect x="698" y="215.635" fill="none" width="132.607" height="33.35"/>
<text transform="matrix(1 0 0 1 697.9999 224.3948)"><tspan x="0" y="0" font-family="'Gotham-Medium'" font-size="12">Envoi de la vidéo  </tspan><tspan x="0" y="17" font-family="'Gotham-Book'" font-size="10">dans le futur</tspan></text>
<rect x="883.517" y="260.927" fill="none" stroke="#FFD25A" stroke-width="2" stroke-miterlimit="10" width="156" height="117"/>
<rect x="884" y="215.635" fill="none" width="132.607" height="33.35"/>
<text transform="matrix(1 0 0 1 883.9999 224.3948)"><tspan x="0" y="0" font-family="'Gotham-Medium'" font-size="12">Déccès  </tspan><tspan x="0" y="17" font-family="'Gotham-Book'" font-size="10">Cérémonie</tspan></text>
<rect x="55.344" y="499.626" fill="none" width="75.64" height="106.195"/>
<text transform="matrix(1 0 0 1 59.9098 508.3858)" font-family="'Gotham-Black'" font-size="12">proche(s)</text>
<rect x="47.715" y="662.888" fill="none" width="75.64" height="106.195"/>
<text transform="matrix(1 0 0 1 79.4721 671.6476)"><tspan x="0" y="0" font-family="'Gotham-Black'" font-size="12">stand </tspan><tspan x="-13.08" y="14.4" font-family="'Gotham-Black'" font-size="12">diplome</tspan></text>
<rect x="47.715" y="803.626" fill="none" width="75.64" height="106.195"/>
<text transform="matrix(1 0 0 1 87.3919 812.3858)"><tspan x="0" y="0" font-family="'Gotham-Black'" font-size="12">Dans </tspan><tspan x="-34.476" y="14.4" font-family="'Gotham-Black'" font-size="12">l’isoloire</tspan></text>
<rect x="47.715" y="1029.987" fill="none" width="75.64" height="106.195"/>
<text transform="matrix(1 0 0 1 100.1361 1038.7467)"><tspan x="0" y="0" font-family="'Gotham-Black'" font-size="12">Les </tspan><tspan x="-27.792" y="14.4" font-family="'Gotham-Black'" font-size="12">autres</tspan></text>
<path d="M561.076,293.297c-1.812-0.243-6.362-0.24-6.362-0.24h-0.318c0,0-4.554-0.003-6.364,0.24
	c-3.163,0.43-5.582,0.38-5.582,6.492c0,2.068,0,33.066,0,36.125c0,3.061,2.578,5.072,5.973,5.072s5.973,0,5.973,0h0.318
	c0,0,2.578,0,5.973,0c3.393,0,5.969-2.011,5.969-5.072c0-3.059,0-34.057,0-36.125C566.656,293.677,564.244,293.727,561.076,293.297z
	 M552.141,294.585h4.562c0.161,0,0.294,0.131,0.294,0.297c0,0.159-0.133,0.294-0.294,0.294h-4.562c-0.164,0-0.297-0.135-0.297-0.294
	C551.844,294.716,551.978,294.585,552.141,294.585z M557.265,338.949c0,0.248-0.203,0.455-0.453,0.455h-4.51
	c-0.254,0-0.457-0.208-0.457-0.455V338.3c0-0.248,0.204-0.454,0.457-0.454h4.51c0.25,0,0.453,0.206,0.453,0.454V338.949
	L557.265,338.949z M564.78,334.598h-20.664v-36.172h20.664V334.598z"/>
<path d="M986.457,497.059c0.243-1.812,0.24-6.362,0.24-6.362v-0.318c0,0,0.003-4.554-0.24-6.364c-0.43-3.163-0.38-5.582-6.492-5.582
	c-2.068,0-33.066,0-36.125,0c-3.061,0-5.072,2.578-5.072,5.973s0,5.973,0,5.973v0.318c0,0,0,2.578,0,5.973
	c0,3.393,2.011,5.969,5.072,5.969c3.059,0,34.057,0,36.125,0C986.077,502.638,986.027,500.226,986.457,497.059z M985.168,488.123
	v4.562c0,0.161-0.131,0.294-0.297,0.294c-0.159,0-0.294-0.133-0.294-0.294v-4.562c0-0.163,0.135-0.297,0.294-0.297
	C985.037,487.827,985.168,487.96,985.168,488.123z M940.805,493.247c-0.248,0-0.455-0.203-0.455-0.453v-4.51
	c0-0.254,0.208-0.457,0.455-0.457h0.649c0.248,0,0.454,0.204,0.454,0.457v4.51c0,0.25-0.206,0.453-0.454,0.453H940.805
	L940.805,493.247z M945.155,500.763v-20.664h36.172v20.664H945.155z"/>
<path d="M633.789,319.218h-2.243c-0.88,0-1.612,0.65-1.741,1.495h-1.729v-2.723c0-1.706-1.319-3.109-2.989-3.245v-0.975
	c5.794-0.143,10.463-4.899,10.463-10.727c0-5.916-4.814-10.73-10.73-10.73c-5.214,0-9.737,3.839-10.615,8.968h-2.759
	c-0.878-5.129-5.369-8.969-10.541-8.969c-5.916,0-10.73,4.814-10.73,10.73c0,5.827,4.669,10.585,10.463,10.727v0.975
	c-1.671,0.136-2.989,1.54-2.989,3.245v4.217h-0.961v-1.228c0-0.972-0.79-1.762-1.762-1.762h-5.231c-0.971,0-1.762,0.79-1.762,1.762
	v13.453c0,0.972,0.79,1.762,1.762,1.762h5.232c0.972,0,1.762-0.79,1.762-1.762v-1.228h0.961v4.217c0,1.796,1.461,3.257,3.256,3.257
	h23.916c1.795,0,3.256-1.461,3.256-3.257v-8.701h1.729c0.129,0.845,0.86,1.494,1.741,1.494h2.243c0.971,0,1.761-0.79,1.761-1.761
	v-7.474C635.55,320.008,634.76,319.218,633.789,319.218z M594.658,334.165h-4.698v-12.919h4.698V334.165z M597.648,331.176h-0.961
	v-6.94h0.961V331.176z M624.82,294.342c4.798,0,8.702,3.903,8.702,8.701c0,4.797-3.903,8.701-8.702,8.701
	c-4.797,0-8.701-3.903-8.701-8.701C616.118,298.245,620.022,294.342,624.82,294.342z M611.631,303.31h2.462
	c0.129,5.111,3.924,9.496,8.966,10.349v1.075h-20.393v-1.076C607.707,312.794,611.503,308.41,611.631,303.31z M592.203,303.043
	c0-4.798,3.903-8.701,8.701-8.701s8.701,3.903,8.701,8.701c0,4.798-3.903,8.701-8.701,8.701
	C596.107,311.744,592.203,307.841,592.203,303.043z M626.048,337.421c0,0.677-0.551,1.228-1.228,1.228h-23.915
	c-0.677,0-1.228-0.551-1.228-1.228V317.99c0-0.677,0.55-1.228,1.228-1.228h23.915c0.677,0,1.228,0.55,1.228,1.228V337.421z
	 M629.785,326.692h-1.709v-3.95h1.709V326.692L629.785,326.692z M633.522,328.186h-1.709v-6.94h1.709V328.186L633.522,328.186z
	 M624.82,307.794c2.62,0,4.751-2.132,4.751-4.751c0-2.62-2.132-4.751-4.751-4.751s-4.751,2.132-4.751,4.751
	C620.069,305.662,622.2,307.794,624.82,307.794z M624.82,300.32c1.501,0,2.723,1.221,2.723,2.723c0,1.501-1.221,2.723-2.723,2.723
	s-2.723-1.221-2.723-2.723C622.097,301.542,623.319,300.32,624.82,300.32z M606.136,334.912h-2.989
	c-0.597,0-1.014,0.417-1.014,1.014c0,0.597,0.417,1.014,1.014,1.014h2.989c0.597,0,1.014-0.417,1.014-1.014
	C607.15,335.329,606.733,334.912,606.136,334.912z M617.346,325.197c-0.971,0-1.762,0.79-1.762,1.762
	c0,0.972,0.79,1.762,1.762,1.762s1.762-0.79,1.762-1.762C619.108,325.987,618.318,325.197,617.346,325.197z M623.326,319.218
	c-0.597,0-1.014,0.417-1.014,1.014s0.417,1.014,1.014,1.014c0.597,0,1.013-0.417,1.013-1.014S623.922,319.218,623.326,319.218z
	 M612.115,319.218h-8.221c-0.971,0-1.762,0.79-1.762,1.762v10.462c0,0.971,0.79,1.762,1.762,1.762h8.221
	c0.972,0,1.761-0.791,1.761-1.762V320.98C613.876,320.008,613.087,319.218,612.115,319.218z M611.848,331.176h-7.688v-9.929h7.688
	V331.176z M617.346,319.218c-0.971,0-1.762,0.79-1.762,1.762c0,0.971,0.79,1.762,1.762,1.762s1.762-0.79,1.762-1.762
	C619.108,320.008,618.318,319.218,617.346,319.218z M605.656,303.043c0-2.62-2.132-4.751-4.751-4.751
	c-2.619,0-4.75,2.132-4.75,4.751c0,2.619,2.131,4.751,4.75,4.751C603.524,307.794,605.656,305.663,605.656,303.043z
	 M598.182,303.043c0-1.501,1.221-2.723,2.722-2.723c1.501,0,2.723,1.221,2.723,2.723c0,1.501-1.221,2.723-2.723,2.723
	C599.404,305.765,598.182,304.544,598.182,303.043z"/>
<path d="M984.047,319.218h-2.243c-0.88,0-1.612,0.65-1.741,1.495h-1.729v-2.723c0-1.706-1.319-3.109-2.989-3.245v-0.975
	c5.794-0.143,10.463-4.899,10.463-10.727c0-5.916-4.814-10.73-10.73-10.73c-5.214,0-9.736,3.839-10.615,8.968h-2.759
	c-0.878-5.129-5.369-8.969-10.541-8.969c-5.916,0-10.73,4.814-10.73,10.73c0,5.827,4.669,10.585,10.463,10.727v0.975
	c-1.671,0.136-2.989,1.54-2.989,3.245v4.217h-0.961v-1.228c0-0.972-0.79-1.762-1.762-1.762h-5.231c-0.971,0-1.762,0.79-1.762,1.762
	v13.453c0,0.972,0.79,1.762,1.762,1.762h5.232c0.972,0,1.762-0.79,1.762-1.762v-1.228h0.961v4.217c0,1.796,1.461,3.257,3.256,3.257
	h23.915c1.795,0,3.256-1.461,3.256-3.257v-8.701h1.729c0.129,0.845,0.86,1.494,1.741,1.494h2.243c0.971,0,1.761-0.79,1.761-1.761
	v-7.474C985.808,320.008,985.018,319.218,984.047,319.218z M944.917,334.165h-4.698v-12.919h4.698V334.165z M947.907,331.176h-0.961
	v-6.94h0.961V331.176z M975.078,294.342c4.798,0,8.702,3.903,8.702,8.701c0,4.797-3.903,8.701-8.702,8.701
	c-4.797,0-8.701-3.903-8.701-8.701C966.377,298.245,970.281,294.342,975.078,294.342z M961.89,303.31h2.462
	c0.129,5.111,3.924,9.496,8.966,10.349v1.075h-20.393v-1.076C957.966,312.794,961.762,308.41,961.89,303.31z M942.462,303.043
	c0-4.798,3.903-8.701,8.701-8.701s8.701,3.903,8.701,8.701c0,4.798-3.903,8.701-8.701,8.701
	C946.366,311.744,942.462,307.841,942.462,303.043z M976.307,337.421c0,0.677-0.551,1.228-1.228,1.228h-23.915
	c-0.677,0-1.228-0.551-1.228-1.228V317.99c0-0.677,0.55-1.228,1.228-1.228h23.915c0.677,0,1.228,0.55,1.228,1.228V337.421z
	 M980.044,326.692h-1.709v-3.95h1.709V326.692L980.044,326.692z M983.78,328.186h-1.709v-6.94h1.709V328.186L983.78,328.186z
	 M975.078,307.794c2.62,0,4.751-2.132,4.751-4.751c0-2.62-2.132-4.751-4.751-4.751c-2.619,0-4.751,2.132-4.751,4.751
	C970.327,305.662,972.459,307.794,975.078,307.794z M975.078,300.32c1.501,0,2.723,1.221,2.723,2.723
	c0,1.501-1.221,2.723-2.723,2.723c-1.501,0-2.722-1.221-2.722-2.723C972.356,301.542,973.577,300.32,975.078,300.32z
	 M956.395,334.912h-2.989c-0.597,0-1.014,0.417-1.014,1.014c0,0.597,0.417,1.014,1.014,1.014h2.989c0.597,0,1.014-0.417,1.014-1.014
	C957.409,335.329,956.992,334.912,956.395,334.912z M967.605,325.197c-0.971,0-1.762,0.79-1.762,1.762
	c0,0.972,0.79,1.762,1.762,1.762s1.762-0.79,1.762-1.762C969.367,325.987,968.576,325.197,967.605,325.197z M973.584,319.218
	c-0.597,0-1.014,0.417-1.014,1.014s0.417,1.014,1.014,1.014c0.597,0,1.013-0.417,1.013-1.014S974.181,319.218,973.584,319.218z
	 M962.374,319.218h-8.221c-0.971,0-1.762,0.79-1.762,1.762v10.462c0,0.971,0.79,1.762,1.762,1.762h8.221
	c0.972,0,1.761-0.791,1.761-1.762V320.98C964.135,320.008,963.346,319.218,962.374,319.218z M962.107,331.176h-7.688v-9.929h7.688
	V331.176z M967.605,319.218c-0.971,0-1.762,0.79-1.762,1.762c0,0.971,0.79,1.762,1.762,1.762s1.762-0.79,1.762-1.762
	C969.367,320.008,968.576,319.218,967.605,319.218z M955.915,303.043c0-2.62-2.132-4.751-4.751-4.751s-4.751,2.132-4.751,4.751
	c0,2.619,2.131,4.751,4.751,4.751S955.915,305.663,955.915,303.043z M948.441,303.043c0-1.501,1.221-2.723,2.723-2.723
	s2.723,1.221,2.723,2.723c0,1.501-1.221,2.723-2.723,2.723C949.662,305.765,948.441,304.544,948.441,303.043z"/>
<rect x="883.517" y="455.927" fill="none" stroke="#FFD25A" stroke-width="2" stroke-miterlimit="10" width="156" height="117"/>
<rect x="884" y="410.635" fill="none" width="132.607" height="33.35"/>
<text transform="matrix(1 0 0 1 883.9999 419.3948)" font-family="'Gotham-Medium'" font-size="12">Présence Céremonie </text>
<text transform="matrix(1 0 0 1 883.9999 436.3948)" font-family="'Gotham-Book'" font-size="10">1</text>
<text transform="matrix(0.583 0 0 0.583 887.58 433.0652)" font-family="'Gotham-Book'" font-size="10">ère </text>
<text transform="matrix(1 0 0 1 898.5927 436.3948)" font-family="'Gotham-Book'" font-size="10">étape du deuil</text>
<g sketch:type="MSPage">
	<g transform="translate(-180.000000, -135.000000)" sketch:type="MSArtboardGroup">
		<path sketch:type="MSShapeGroup" d="M936.395,451.285v30.402h46.009v-30.402v-1.664l-6.274-4.801v-9.143l-8.365-8.365h-25.096
			v17.508l-6.274,4.801V451.285z M938.486,450.65v2.4l4.183,3.207v-8.814L938.486,450.65z M980.312,450.65v2.4l-4.183,3.207v-8.814
			L980.312,450.65z M944.76,457.86l9.256,7.096h10.766l9.256-7.096V437.77h-8.365v-8.365H944.76V457.86z M980.312,455.679v23.036
			l-13.046-13.053L980.312,455.679z M978.236,479.596H940.57l12.542-12.548h12.583L978.236,479.596z M938.486,478.722v-23.044
			l13.051,9.987L938.486,478.722z M973.202,435.678h-5.437v-5.437L973.202,435.678z M953.125,441.952l14.639,8.365l-14.639,8.365
			V441.952z M955.216,445.549l8.365,4.768l-8.365,4.768V445.549z"/>
	</g>
</g>
<g>
	<path d="M949.575,527.003c-4.049,0-7.383,3.334-7.383,7.383s3.334,7.383,7.383,7.383s7.383-3.334,7.383-7.383
		S953.742,527.003,949.575,527.003z M949.575,540.697c-3.453,0-6.192-2.858-6.192-6.192c0-3.453,2.858-6.192,6.192-6.192
		s6.192,2.858,6.192,6.192C955.885,537.839,953.028,540.697,949.575,540.697z"/>
	<path d="M975.771,527.003c-4.049,0-7.383,3.334-7.383,7.383s3.334,7.383,7.383,7.383c4.049,0,7.383-3.334,7.383-7.383
		S979.939,527.003,975.771,527.003z M975.771,540.697c-3.453,0-6.192-2.858-6.192-6.192c0-3.453,2.858-6.192,6.192-6.192
		c3.453,0,6.192,2.858,6.192,6.192C982.082,537.839,979.224,540.697,975.771,540.697z"/>
	<path d="M988.869,514.5h-52.393c-3.096,0-5.597,2.501-5.597,5.597v26.911c0,3.096,2.501,5.597,5.597,5.597h15.956
		c1.786,0,3.334-1.072,4.168-2.62l3.572-8.931c0.476-0.953,1.429-1.548,2.501-1.548c0.834,0,2.024,0.476,2.501,1.667l3.096,8.812
		c0.714,1.667,2.262,2.739,4.168,2.739h16.551c3.096,0,5.597-2.501,5.597-5.597v-26.911
		C994.585,517.001,991.965,514.5,988.869,514.5z M992.203,547.127c0,1.786-1.429,3.215-3.215,3.215h-16.671
		c-0.833,0-1.548-0.476-1.905-1.191l-3.096-8.812c-0.833-1.905-2.62-3.215-4.763-3.215c-2.024,0-3.81,1.191-4.644,2.977
		l-3.572,8.931c-0.357,0.714-1.072,1.191-1.905,1.191h-15.956c-1.786,0-3.215-1.429-3.215-3.215v-26.792
		c0-1.786,1.429-3.215,3.215-3.215h52.393c1.786,0,3.215,1.429,3.215,3.215v26.911H992.203z"/>
	<path d="M975.771,528.789c-3.096,0-5.596,2.501-5.596,5.597c0,0.357,0.238,0.595,0.595,0.595c0.357,0,0.595-0.238,0.595-0.595
		c0-2.501,2.024-4.406,4.406-4.406c0.357,0,0.595-0.238,0.595-0.595S976.128,528.789,975.771,528.789z"/>
	<path d="M949.575,528.789c-3.096,0-5.597,2.501-5.597,5.597c0,0.357,0.238,0.595,0.595,0.595s0.595-0.238,0.595-0.595
		c0-2.501,2.024-4.406,4.406-4.406c0.357,0,0.595-0.238,0.595-0.595S949.932,528.789,949.575,528.789z"/>
</g>
<path d="M270.457,801.059c0.243-1.812,0.24-6.362,0.24-6.362v-0.318c0,0,0.003-4.554-0.24-6.364c-0.43-3.163-0.38-5.582-6.492-5.582
	c-2.068,0-33.066,0-36.125,0c-3.061,0-5.072,2.578-5.072,5.973s0,5.973,0,5.973v0.318c0,0,0,2.578,0,5.973
	c0,3.393,2.011,5.969,5.072,5.969c3.059,0,34.057,0,36.125,0C270.077,806.638,270.027,804.226,270.457,801.059z M269.168,792.123
	v4.562c0,0.161-0.131,0.294-0.297,0.294c-0.159,0-0.294-0.133-0.294-0.294v-4.562c0-0.164,0.135-0.297,0.294-0.297
	C269.037,791.827,269.168,791.96,269.168,792.123z M224.805,797.247c-0.248,0-0.455-0.203-0.455-0.453v-4.51
	c0-0.254,0.208-0.457,0.455-0.457h0.649c0.248,0,0.454,0.204,0.454,0.457v4.51c0,0.25-0.206,0.453-0.454,0.453H224.805
	L224.805,797.247z M229.155,804.763v-20.664h36.172v20.664H229.155z"/>
<rect x="167.517" y="759.927" fill="none" stroke="#FFD25A" stroke-width="2" stroke-miterlimit="10" width="156" height="117"/>
<rect x="168" y="714.635" fill="none" width="132.607" height="33.35"/>
<text transform="matrix(1 0 0 1 167.9999 723.3948)" font-family="'Gotham-Medium'" font-size="12">Présence Céremonie </text>
<text transform="matrix(1 0 0 1 167.9999 740.3948)" font-family="'Gotham-Book'" font-size="10">1</text>
<text transform="matrix(0.583 0 0 0.583 171.5799 737.0652)" font-family="'Gotham-Book'" font-size="10">ère </text>
<text transform="matrix(1 0 0 1 182.5926 740.3948)" font-family="'Gotham-Book'" font-size="10">étape du deuil</text>
<g>
	<path d="M233.575,831.003c-4.049,0-7.383,3.334-7.383,7.383s3.334,7.383,7.383,7.383s7.383-3.334,7.383-7.383
		S237.742,831.003,233.575,831.003z M233.575,844.697c-3.453,0-6.192-2.858-6.192-6.192c0-3.453,2.858-6.192,6.192-6.192
		s6.192,2.858,6.192,6.192C239.886,841.839,237.028,844.697,233.575,844.697z"/>
	<path d="M259.771,831.003c-4.049,0-7.383,3.334-7.383,7.383s3.334,7.383,7.383,7.383c4.049,0,7.383-3.334,7.383-7.383
		S263.939,831.003,259.771,831.003z M259.771,844.697c-3.453,0-6.192-2.858-6.192-6.192c0-3.453,2.858-6.192,6.192-6.192
		c3.453,0,6.192,2.858,6.192,6.192C266.082,841.839,263.224,844.697,259.771,844.697z"/>
	<path d="M272.869,818.5h-52.393c-3.096,0-5.597,2.501-5.597,5.597v26.911c0,3.096,2.501,5.597,5.597,5.597h15.956
		c1.786,0,3.334-1.072,4.168-2.62l3.572-8.931c0.476-0.953,1.429-1.548,2.501-1.548c0.834,0,2.024,0.476,2.501,1.667l3.096,8.812
		c0.714,1.667,2.262,2.739,4.168,2.739h16.551c3.096,0,5.597-2.501,5.597-5.597v-26.911
		C278.585,821.001,275.965,818.5,272.869,818.5z M276.203,851.127c0,1.786-1.429,3.215-3.215,3.215h-16.671
		c-0.834,0-1.548-0.476-1.905-1.191l-3.096-8.812c-0.834-1.905-2.62-3.215-4.763-3.215c-2.024,0-3.81,1.191-4.644,2.977
		l-3.572,8.931c-0.357,0.714-1.072,1.191-1.905,1.191h-15.956c-1.786,0-3.215-1.429-3.215-3.215v-26.792
		c0-1.786,1.429-3.215,3.215-3.215h52.393c1.786,0,3.215,1.429,3.215,3.215v26.911H276.203z"/>
	<path d="M259.771,832.789c-3.096,0-5.597,2.501-5.597,5.597c0,0.357,0.238,0.595,0.595,0.595s0.595-0.238,0.595-0.595
		c0-2.501,2.024-4.406,4.406-4.406c0.357,0,0.595-0.238,0.595-0.595S260.128,832.789,259.771,832.789z"/>
	<path d="M233.575,832.789c-3.096,0-5.597,2.501-5.597,5.597c0,0.357,0.238,0.595,0.595,0.595s0.595-0.238,0.595-0.595
		c0-2.501,2.024-4.406,4.406-4.406c0.357,0,0.595-0.238,0.595-0.595S233.932,832.789,233.575,832.789z"/>
</g>
<rect x="166.517" y="977.927" fill="none" stroke="#FFD25A" stroke-width="2" stroke-miterlimit="10" width="156" height="117"/>
<rect x="167" y="932.635" fill="none" width="155.011" height="33.35"/>
<text transform="matrix(1 0 0 1 166.9999 941.3948)"><tspan x="0" y="0" font-family="'Gotham-Medium'" font-size="12">Redifusion du contenu </tspan><tspan x="0" y="17" font-family="'Gotham-Book'" font-size="10">Sous-titré</tspan></text>
<rect x="355.451" y="932.635" fill="none" width="155.011" height="33.35"/>
<text transform="matrix(1 0 0 1 355.4513 941.3948)"><tspan x="0" y="0" font-family="'Gotham-Medium'" font-size="12">Explication cardboard </tspan><tspan x="0" y="17" font-family="'Gotham-Book'" font-size="10">Personnalisé</tspan></text>
<rect x="541.494" y="932.635" fill="none" width="155.011" height="33.35"/>
<text transform="matrix(1 0 0 1 541.494 941.3948)"><tspan x="0" y="0" font-family="'Gotham-Medium'" font-size="12">Onrement </tspan><tspan x="0" y="17" font-family="'Gotham-Book'" font-size="10">Matériel éléctronique</tspan></text>
<path d="M1214.261,497.059c0.243-1.812,0.24-6.362,0.24-6.362v-0.318c0,0,0.003-4.554-0.24-6.364
	c-0.43-3.163-0.38-5.582-6.492-5.582c-2.068,0-33.066,0-36.125,0c-3.061,0-5.072,2.578-5.072,5.973s0,5.973,0,5.973v0.318
	c0,0,0,2.578,0,5.973c0,3.393,2.011,5.969,5.072,5.969c3.059,0,34.057,0,36.125,0
	C1213.881,502.638,1213.831,500.226,1214.261,497.059z M1212.972,488.123v4.562c0,0.161-0.131,0.294-0.297,0.294
	c-0.159,0-0.294-0.133-0.294-0.294v-4.562c0-0.163,0.135-0.297,0.294-0.297C1212.841,487.827,1212.972,487.96,1212.972,488.123z
	 M1168.609,493.247c-0.248,0-0.455-0.203-0.455-0.453v-4.51c0-0.254,0.208-0.457,0.455-0.457h0.649c0.248,0,0.454,0.204,0.454,0.457
	v4.51c0,0.25-0.206,0.453-0.454,0.453H1168.609L1168.609,493.247z M1172.959,500.763v-20.664h36.172v20.664H1172.959z"/>
<rect x="1083.517" y="455.927" fill="none" stroke="#FFD25A" stroke-width="2" stroke-miterlimit="10" width="156" height="117"/>
<rect x="1084" y="410.635" fill="none" width="163.269" height="33.35"/>
<text transform="matrix(1 0 0 1 1083.9999 419.3943)"><tspan x="0" y="0" font-family="'Gotham-Medium'" font-size="12">Accès aux vidéox du défun </tspan><tspan x="0" y="17" font-family="'Gotham-Book'" font-size="10">Héritage / souvenirs</tspan></text>
<g>
	<path d="M1177.379,527.003c-4.048,0-7.383,3.334-7.383,7.383s3.334,7.383,7.383,7.383c4.049,0,7.383-3.334,7.383-7.383
		S1181.546,527.003,1177.379,527.003z M1177.379,540.697c-3.453,0-6.192-2.858-6.192-6.192c0-3.453,2.858-6.192,6.192-6.192
		s6.192,2.858,6.192,6.192C1183.69,537.839,1180.832,540.697,1177.379,540.697z"/>
	<path d="M1203.575,527.003c-4.049,0-7.383,3.334-7.383,7.383s3.334,7.383,7.383,7.383c4.048,0,7.383-3.334,7.383-7.383
		S1207.743,527.003,1203.575,527.003z M1203.575,540.697c-3.453,0-6.192-2.858-6.192-6.192c0-3.453,2.858-6.192,6.192-6.192
		c3.453,0,6.192,2.858,6.192,6.192C1209.886,537.839,1207.028,540.697,1203.575,540.697z"/>
	<path d="M1216.673,514.5h-52.393c-3.096,0-5.596,2.501-5.596,5.597v26.911c0,3.096,2.5,5.597,5.596,5.597h15.956
		c1.786,0,3.334-1.072,4.168-2.62l3.572-8.931c0.476-0.953,1.429-1.548,2.5-1.548c0.834,0,2.024,0.476,2.501,1.667l3.096,8.812
		c0.714,1.667,2.262,2.739,4.168,2.739h16.551c3.096,0,5.597-2.501,5.597-5.597v-26.911
		C1222.389,517.001,1219.769,514.5,1216.673,514.5z M1220.008,547.127c0,1.786-1.429,3.215-3.215,3.215h-16.671
		c-0.833,0-1.548-0.476-1.905-1.191l-3.096-8.812c-0.834-1.905-2.62-3.215-4.763-3.215c-2.024,0-3.81,1.191-4.644,2.977
		l-3.572,8.931c-0.357,0.714-1.072,1.191-1.905,1.191h-15.956c-1.786,0-3.215-1.429-3.215-3.215v-26.792
		c0-1.786,1.429-3.215,3.215-3.215h52.393c1.786,0,3.215,1.429,3.215,3.215v26.911H1220.008z"/>
	<path d="M1203.575,528.789c-3.096,0-5.597,2.501-5.597,5.597c0,0.357,0.238,0.595,0.595,0.595s0.595-0.238,0.595-0.595
		c0-2.501,2.024-4.406,4.406-4.406c0.357,0,0.595-0.238,0.595-0.595S1203.932,528.789,1203.575,528.789z"/>
	<path d="M1177.379,528.789c-3.096,0-5.596,2.501-5.596,5.597c0,0.357,0.238,0.595,0.595,0.595s0.595-0.238,0.595-0.595
		c0-2.501,2.024-4.406,4.406-4.406c0.357,0,0.595-0.238,0.595-0.595S1177.736,528.789,1177.379,528.789z"/>
</g>
<g>
	<g>
		<line fill="none" stroke="#000000" stroke-miterlimit="10" x1="910.517" y1="614.427" x2="904.517" y2="614.427"/>
		
			<line fill="none" stroke="#000000" stroke-miterlimit="10" stroke-dasharray="12,12" x1="892.517" y1="614.427" x2="59.517" y2="614.427"/>
		<line fill="none" stroke="#000000" stroke-miterlimit="10" x1="53.517" y1="614.427" x2="47.517" y2="614.427"/>
	</g>
</g>
<g>
	<g>
		<line fill="none" stroke="#000000" stroke-miterlimit="10" x1="696.517" y1="897.427" x2="690.517" y2="897.427"/>
		
			<line fill="none" stroke="#000000" stroke-miterlimit="10" stroke-dasharray="12,12" x1="678.517" y1="897.427" x2="178.517" y2="897.427"/>
		<line fill="none" stroke="#000000" stroke-miterlimit="10" x1="172.517" y1="897.427" x2="166.517" y2="897.427"/>
	</g>
</g>
<path d="M1118.302,473.51c-6.222,0-11.264,5.042-11.264,11.263c0,2.431,0.787,5.221,2.11,7.08l9.154,13.838l9.154-13.838
	c1.323-1.859,2.11-4.613,2.11-7.08C1129.566,478.551,1124.524,473.51,1118.302,473.51z M1118.302,489.064
	c-2.36,0-4.291-1.931-4.291-4.291c0-2.36,1.931-4.291,4.291-4.291s4.291,1.931,4.291,4.291
	C1122.593,487.133,1120.662,489.064,1118.302,489.064z"/>
<g>
	<path d="M1118.302,550.531c8.561,0,15.55-6.988,15.55-15.55c0-8.562-6.988-15.55-15.55-15.55c-8.562,0-15.55,6.988-15.55,15.55
		C1102.753,543.542,1109.741,550.531,1118.302,550.531z M1118.302,521.261c7.574,0,13.72,6.147,13.72,13.72
		c0,7.574-6.147,13.72-13.72,13.72s-13.72-6.147-13.72-13.72C1104.582,527.407,1110.729,521.261,1118.302,521.261z"/>
	<polygon points="1125.62,534.066 1119.217,534.066 1119.217,524.005 1117.388,524.005 1117.388,535.896 1125.62,535.896 	"/>
</g>
<path d="M486.261,801.059c0.243-1.812,0.24-6.362,0.24-6.362v-0.318c0,0,0.003-4.554-0.24-6.364c-0.43-3.163-0.38-5.582-6.492-5.582
	c-2.068,0-33.066,0-36.125,0c-3.061,0-5.072,2.578-5.072,5.973s0,5.973,0,5.973v0.318c0,0,0,2.578,0,5.973
	c0,3.393,2.011,5.969,5.072,5.969c3.059,0,34.057,0,36.125,0C485.881,806.638,485.831,804.226,486.261,801.059z M484.972,792.123
	v4.562c0,0.161-0.131,0.294-0.297,0.294c-0.159,0-0.294-0.133-0.294-0.294v-4.562c0-0.164,0.135-0.297,0.294-0.297
	C484.841,791.827,484.972,791.96,484.972,792.123z M440.609,797.247c-0.248,0-0.455-0.203-0.455-0.453v-4.51
	c0-0.254,0.208-0.457,0.455-0.457h0.649c0.248,0,0.454,0.204,0.454,0.457v4.51c0,0.25-0.206,0.453-0.454,0.453H440.609
	L440.609,797.247z M444.959,804.763v-20.664h36.172v20.664H444.959z"/>
<rect x="355.517" y="759.927" fill="none" stroke="#FFD25A" stroke-width="2" stroke-miterlimit="10" width="156" height="117"/>
<rect x="355" y="714.635" fill="none" width="163.269" height="33.35"/>
<text transform="matrix(1 0 0 1 354.9998 723.3943)"><tspan x="0" y="0" font-family="'Gotham-Medium'" font-size="12">Accès aux vidéox du défun </tspan><tspan x="0" y="17" font-family="'Gotham-Book'" font-size="10">Héritage / souvenirs</tspan></text>
<rect x="336.144" y="814.128" fill="none" width="13.311" height="27.754"/>
<text transform="matrix(1 0 0 1 336.1444 822.8874)" font-family="'Gotham-Medium'" font-size="12">+</text>
<g>
	<path d="M449.379,831.003c-4.049,0-7.383,3.334-7.383,7.383s3.334,7.383,7.383,7.383c4.049,0,7.383-3.334,7.383-7.383
		S453.546,831.003,449.379,831.003z M449.379,844.697c-3.453,0-6.192-2.858-6.192-6.192c0-3.453,2.858-6.192,6.192-6.192
		s6.192,2.858,6.192,6.192C455.69,841.839,452.832,844.697,449.379,844.697z"/>
	<path d="M475.575,831.003c-4.049,0-7.383,3.334-7.383,7.383s3.334,7.383,7.383,7.383s7.383-3.334,7.383-7.383
		S479.743,831.003,475.575,831.003z M475.575,844.697c-3.453,0-6.192-2.858-6.192-6.192c0-3.453,2.858-6.192,6.192-6.192
		c3.453,0,6.192,2.858,6.192,6.192C481.886,841.839,479.028,844.697,475.575,844.697z"/>
	<path d="M488.673,818.5H436.28c-3.096,0-5.597,2.501-5.597,5.597v26.911c0,3.096,2.501,5.597,5.597,5.597h15.956
		c1.786,0,3.334-1.072,4.168-2.62l3.572-8.931c0.476-0.953,1.429-1.548,2.501-1.548c0.834,0,2.024,0.476,2.501,1.667l3.096,8.812
		c0.714,1.667,2.262,2.739,4.168,2.739h16.551c3.096,0,5.597-2.501,5.597-5.597v-26.911
		C494.389,821.001,491.769,818.5,488.673,818.5z M492.008,851.127c0,1.786-1.429,3.215-3.215,3.215h-16.671
		c-0.834,0-1.548-0.476-1.905-1.191l-3.096-8.812c-0.834-1.905-2.62-3.215-4.763-3.215c-2.024,0-3.81,1.191-4.644,2.977
		l-3.572,8.931c-0.357,0.714-1.072,1.191-1.905,1.191H436.28c-1.786,0-3.215-1.429-3.215-3.215v-26.792
		c0-1.786,1.429-3.215,3.215-3.215h52.393c1.786,0,3.215,1.429,3.215,3.215v26.911H492.008z"/>
	<path d="M475.575,832.789c-3.096,0-5.597,2.501-5.597,5.597c0,0.357,0.238,0.595,0.595,0.595c0.357,0,0.595-0.238,0.595-0.595
		c0-2.501,2.024-4.406,4.406-4.406c0.357,0,0.595-0.238,0.595-0.595S475.932,832.789,475.575,832.789z"/>
	<path d="M449.379,832.789c-3.096,0-5.597,2.501-5.597,5.597c0,0.357,0.238,0.595,0.595,0.595c0.357,0,0.595-0.238,0.595-0.595
		c0-2.501,2.024-4.406,4.406-4.406c0.357,0,0.595-0.238,0.595-0.595S449.736,832.789,449.379,832.789z"/>
</g>
<rect x="355.517" y="977.927" fill="none" stroke="#FFD25A" stroke-width="2" stroke-miterlimit="10" width="156" height="117"/>
<rect x="540.517" y="977.927" fill="none" stroke="#FFD25A" stroke-width="2" stroke-miterlimit="10" width="156" height="117"/>
<g>
	<path d="M423.477,1029.891c-4.049,0-7.383,3.334-7.383,7.383c0,4.048,3.334,7.383,7.383,7.383s7.383-3.334,7.383-7.383
		C430.859,1033.225,427.644,1029.891,423.477,1029.891z M423.477,1043.585c-3.453,0-6.192-2.858-6.192-6.192
		c0-3.453,2.858-6.192,6.192-6.192s6.192,2.858,6.192,6.192C429.787,1040.727,426.93,1043.585,423.477,1043.585z"/>
	<path d="M449.673,1029.891c-4.049,0-7.383,3.334-7.383,7.383c0,4.048,3.334,7.383,7.383,7.383c4.049,0,7.383-3.334,7.383-7.383
		C457.056,1033.225,453.841,1029.891,449.673,1029.891z M449.673,1043.585c-3.453,0-6.192-2.858-6.192-6.192
		c0-3.453,2.858-6.192,6.192-6.192c3.453,0,6.192,2.858,6.192,6.192C455.984,1040.727,453.126,1043.585,449.673,1043.585z"/>
	<path d="M462.771,1017.388h-52.393c-3.096,0-5.597,2.501-5.597,5.597v26.911c0,3.096,2.501,5.597,5.597,5.597h15.956
		c1.786,0,3.334-1.072,4.168-2.62l3.572-8.931c0.476-0.953,1.429-1.548,2.501-1.548c0.834,0,2.024,0.476,2.501,1.667l3.096,8.812
		c0.714,1.667,2.262,2.739,4.168,2.739h16.551c3.096,0,5.597-2.501,5.597-5.597v-26.911
		C468.487,1019.889,465.867,1017.388,462.771,1017.388z M466.105,1050.015c0,1.786-1.429,3.215-3.215,3.215H446.22
		c-0.834,0-1.548-0.476-1.905-1.191l-3.096-8.812c-0.834-1.905-2.62-3.215-4.763-3.215c-2.024,0-3.81,1.191-4.644,2.977
		l-3.572,8.931c-0.357,0.714-1.072,1.191-1.905,1.191h-15.956c-1.786,0-3.215-1.429-3.215-3.215v-26.792
		c0-1.786,1.429-3.215,3.215-3.215h52.393c1.786,0,3.215,1.429,3.215,3.215v26.911H466.105z"/>
	<path d="M449.673,1031.677c-3.096,0-5.597,2.5-5.597,5.597c0,0.357,0.238,0.595,0.595,0.595c0.357,0,0.595-0.238,0.595-0.595
		c0-2.501,2.024-4.406,4.406-4.406c0.357,0,0.595-0.238,0.595-0.595S450.03,1031.677,449.673,1031.677z"/>
	<path d="M423.477,1031.677c-3.096,0-5.597,2.5-5.597,5.597c0,0.357,0.238,0.595,0.595,0.595s0.595-0.238,0.595-0.595
		c0-2.501,2.024-4.406,4.406-4.406c0.357,0,0.595-0.238,0.595-0.595S423.834,1031.677,423.477,1031.677z"/>
</g>
<path d="M390.302,779.51c-6.222,0-11.263,5.042-11.263,11.263c0,2.431,0.787,5.221,2.11,7.08l9.154,13.838l9.154-13.838
	c1.323-1.859,2.11-4.613,2.11-7.08C401.566,784.551,396.524,779.51,390.302,779.51z M390.302,795.064
	c-2.36,0-4.291-1.931-4.291-4.291s1.931-4.291,4.291-4.291c2.36,0,4.291,1.931,4.291,4.291S392.662,795.064,390.302,795.064z"/>
<g>
	<path d="M390.302,854.531c8.561,0,15.55-6.988,15.55-15.55c0-8.562-6.988-15.55-15.55-15.55s-15.55,6.988-15.55,15.55
		C374.753,847.542,381.741,854.531,390.302,854.531z M390.302,825.261c7.574,0,13.72,6.147,13.72,13.72
		c0,7.574-6.147,13.72-13.72,13.72c-7.574,0-13.72-6.147-13.72-13.72C376.582,831.407,382.729,825.261,390.302,825.261z"/>
	<polygon points="397.62,838.066 391.217,838.066 391.217,828.005 389.388,828.005 389.388,839.896 397.62,839.896 	"/>
</g>
<g>
	<path d="M285.345,1004.335H204.66c-2.096,0-3.799,1.697-3.799,3.794v47.703c0,2.096,1.703,3.794,3.799,3.794h34.409l-3.129,8.017
		h-1.319v1.023h19.94v-1.023h-1.324l-3.17-8.017h35.278c2.096,0,3.794-1.697,3.794-3.794v-47.703
		C289.144,1006.033,287.441,1004.335,285.345,1004.335z M242.392,1054.17c0-1.442,1.171-2.613,2.613-2.613
		c1.442,0,2.608,1.171,2.608,2.613c0,1.442-1.166,2.608-2.608,2.608C243.563,1056.777,242.392,1055.612,242.392,1054.17z
		 M285.345,1047.764H204.66v-39.635h80.685V1047.764z"/>
</g>
<path d="M649.697,1014.728v-2.665h-6.661v-6.661h-2.665v6.661h-5.329v-6.661h-2.665v6.661h-5.329v-6.661h-2.665v6.661h-5.329v-6.661
	h-2.665v6.661h-5.329v-6.661h-2.665v6.661h-5.329v-6.661h-2.665v6.661h-5.329v-6.661h-2.665v6.661h-6.662v2.665h6.662v5.329h-6.662
	v2.665h6.662v5.329h-6.662v2.665h6.662v5.329h-6.662v2.665h6.662v5.328h-6.662v2.665h6.662v5.329h-6.662v2.665h6.662v5.329h-6.662
	v2.665h6.662v6.661h2.665v-6.661h5.329v6.661h2.665v-6.661h5.329v6.661h2.665v-6.661h5.329v6.661h2.665v-6.661h5.329v6.661h2.665
	v-6.661h5.329v6.661h2.665v-6.661h5.329v6.661h2.665v-6.661h6.661v-2.665h-6.661v-5.329h6.661v-2.665h-6.661v-5.329h6.661v-2.665
	h-6.661v-5.328h6.661v-2.665h-6.661v-5.329h6.661v-2.665h-6.661v-5.329h6.661v-2.665h-6.661v-5.329H649.697z M632.377,1014.728
	v5.329h-5.329v-5.329H632.377z M616.389,1038.71v5.328h-5.329v-5.328H616.389z M611.06,1036.045v-5.329h5.329v5.329H611.06z
	 M619.054,1038.71h5.329v5.328h-5.329V1038.71z M619.054,1036.045v-5.329h5.329v5.329H619.054z M619.054,1028.051v-5.329h5.329
	v5.329H619.054z M616.389,1028.051h-5.329v-5.329h5.329V1028.051z M608.396,1028.051h-5.329v-5.329h5.329V1028.051z
	 M608.396,1030.716v5.329h-5.329v-5.329H608.396z M608.396,1038.71v5.328h-5.329v-5.328H608.396z M608.396,1046.703v5.329h-5.329
	v-5.329H608.396z M611.06,1046.703h5.329v5.329h-5.329V1046.703z M619.054,1046.703h5.329v5.329h-5.329V1046.703z M627.048,1046.703
	h5.329v5.329h-5.329V1046.703z M627.048,1044.038v-5.328h5.329v5.328H627.048z M627.048,1036.045v-5.329h5.329v5.329H627.048z
	 M627.048,1028.051v-5.329h5.329v5.329H627.048z M624.383,1014.728v5.329h-5.329v-5.329H624.383z M616.389,1014.728v5.329h-5.329
	v-5.329H616.389z M608.396,1014.728v5.329h-5.329v-5.329H608.396z M595.073,1014.728h5.329v5.329h-5.329V1014.728z
	 M595.073,1022.722h5.329v5.329h-5.329V1022.722z M595.073,1030.716h5.329v5.329h-5.329V1030.716z M595.073,1038.71h5.329v5.328
	h-5.329V1038.71z M595.073,1046.703h5.329v5.329h-5.329V1046.703z M595.073,1060.026v-5.329h5.329v5.329H595.073z M603.066,1060.026
	v-5.329h5.329v5.329H603.066z M611.06,1060.026v-5.329h5.329v5.329H611.06z M619.054,1060.026v-5.329h5.329v5.329H619.054z
	 M627.048,1060.026v-5.329h5.329v5.329H627.048z M640.371,1060.026h-5.329v-5.329h5.329V1060.026z M640.371,1052.032h-5.329v-5.329
	h5.329V1052.032z M640.371,1044.038h-5.329v-5.328h5.329V1044.038z M640.371,1036.045h-5.329v-5.329h5.329V1036.045z
	 M640.371,1028.051h-5.329v-5.329h5.329V1028.051z M640.371,1020.058h-5.329v-5.329h5.329V1020.058z"/>
<polygon fill="#FFFFFF" stroke="#000000" stroke-width="2" stroke-miterlimit="10" points="1500.517,862.927 1535.517,881.26 
	1504.517,909.927 1516.85,881.927 "/>
<polygon fill="#FFFFFF" stroke="#000000" stroke-width="2" stroke-miterlimit="10" points="1534.517,961.927 1499.517,943.593 
	1530.517,914.927 1518.183,942.927 "/>
</svg>
