<?xml version="1.0" encoding="utf-8"?>
<!-- Generator: Adobe Illustrator 17.0.0, SVG Export Plug-In . SVG Version: 6.00 Build 0)  -->
<!DOCTYPE svg PUBLIC "-//W3C//DTD SVG 1.1//EN" "http://www.w3.org/Graphics/SVG/1.1/DTD/svg11.dtd">
<svg version="1.1" id="Calque_1" xmlns="http://www.w3.org/2000/svg" xmlns:xlink="http://www.w3.org/1999/xlink" x="0px" y="0px"
	 width="51.044px" height="61.426px" viewBox="0 0 51.044 61.426" enable-background="new 0 0 51.044 61.426" xml:space="preserve">
<rect x="-2996.956" y="-357.574" fill="none" stroke="#FFD25A" stroke-width="2" stroke-miterlimit="10" width="156" height="117"/>
<rect x="-2809.956" y="-357.574" fill="none" stroke="#FFD25A" stroke-width="2" stroke-miterlimit="10" width="156" height="117"/>
<rect x="-3139.621" y="-301.479" fill="none" width="106.132" height="14.485"/>
<text transform="matrix(1 0 0 1 -3133.9148 -292.7189)" font-family="'Gotham-Black'" font-size="12">Protagoniste</text>
<rect x="-2915.605" y="-472.718" fill="none" width="106.132" height="14.485"/>
<text transform="matrix(1 0 0 1 -2846.6125 -463.9585)" font-family="'Gotham-Black'" font-size="12">crise</text>
<rect x="-2638.973" y="-472.718" fill="none" width="106.132" height="14.485"/>
<text transform="matrix(1 0 0 1 -2553.96 -463.9585)" font-family="'Gotham-Black'" font-size="12">fin</text>
<rect x="-2398.595" y="-476.408" fill="none" width="106.132" height="14.485"/>
<text transform="matrix(1 0 0 1 -2383.3494 -467.6483)" font-family="'Gotham-Black'" font-size="12">renaissance</text>
<rect x="-2996.473" y="-402.865" fill="none" width="132.607" height="33.35"/>
<text transform="matrix(1 0 0 1 -2996.4731 -394.1054)"><tspan x="0" y="0" font-family="'Gotham-Medium'" font-size="12">Envie de transmettre</tspan><tspan x="0" y="17" font-family="'Gotham-Book'" font-size="10">Lieux / Messages</tspan></text>
<rect x="-2809.473" y="-402.865" fill="none" width="132.607" height="33.35"/>
<text transform="matrix(1 0 0 1 -2809.4731 -394.1054)"><tspan x="0" y="0" font-family="'Gotham-Medium'" font-size="12">Envoi de la vidéo  </tspan><tspan x="0" y="17" font-family="'Gotham-Book'" font-size="10">dans le futur</tspan></text>
<rect x="-2623.956" y="-357.574" fill="none" stroke="#FFD25A" stroke-width="2" stroke-miterlimit="10" width="156" height="117"/>
<rect x="-2623.473" y="-402.865" fill="none" width="132.607" height="33.35"/>
<text transform="matrix(1 0 0 1 -2623.4731 -394.1054)"><tspan x="0" y="0" font-family="'Gotham-Medium'" font-size="12">Déccès  </tspan><tspan x="0" y="17" font-family="'Gotham-Book'" font-size="10">Cérémonie</tspan></text>
<rect x="-3109.128" y="-118.874" fill="none" width="75.64" height="106.195"/>
<text transform="matrix(1 0 0 1 -3104.5632 -110.1144)" font-family="'Gotham-Black'" font-size="12">proche(s)</text>
<rect x="-3116.758" y="44.387" fill="none" width="75.64" height="106.195"/>
<text transform="matrix(1 0 0 1 -3085.0007 53.1474)"><tspan x="0" y="0" font-family="'Gotham-Black'" font-size="12">stand </tspan><tspan x="-13.08" y="14.4" font-family="'Gotham-Black'" font-size="12">diplome</tspan></text>
<rect x="-3116.758" y="185.126" fill="none" width="75.64" height="106.195"/>
<text transform="matrix(1 0 0 1 -3077.0811 193.8856)"><tspan x="0" y="0" font-family="'Gotham-Black'" font-size="12">Dans </tspan><tspan x="-34.476" y="14.4" font-family="'Gotham-Black'" font-size="12">l’isoloire</tspan></text>
<rect x="-3116.758" y="411.486" fill="none" width="75.64" height="106.195"/>
<text transform="matrix(1 0 0 1 -3064.3369 420.2465)"><tspan x="0" y="0" font-family="'Gotham-Black'" font-size="12">Les </tspan><tspan x="-27.792" y="14.4" font-family="'Gotham-Black'" font-size="12">autres</tspan></text>
<path d="M-2946.397-325.204c-1.812-0.243-6.362-0.24-6.362-0.24h-0.319c0,0-4.554-0.003-6.364,0.24
	c-3.163,0.43-5.582,0.38-5.582,6.492c0,2.068,0,33.066,0,36.125c0,3.061,2.578,5.072,5.973,5.072s5.973,0,5.973,0h0.319
	c0,0,2.577,0,5.973,0c3.394,0,5.969-2.011,5.969-5.072c0-3.059,0-34.057,0-36.125
	C-2940.817-324.823-2943.229-324.773-2946.397-325.204z M-2955.332-323.915h4.562c0.161,0,0.294,0.131,0.294,0.297
	c0,0.159-0.133,0.294-0.294,0.294h-4.562c-0.164,0-0.297-0.135-0.297-0.294C-2955.628-323.784-2955.495-323.915-2955.332-323.915z
	 M-2950.208-279.552c0,0.248-0.203,0.455-0.453,0.455h-4.51c-0.254,0-0.457-0.208-0.457-0.455v-0.649
	c0-0.248,0.204-0.454,0.457-0.454h4.51c0.25,0,0.453,0.206,0.453,0.454V-279.552L-2950.208-279.552z M-2942.693-283.902h-20.664
	v-36.172h20.664V-283.902z"/>
<path d="M-2521.016-121.441c0.243-1.812,0.24-6.362,0.24-6.362v-0.318c0,0,0.003-4.554-0.24-6.364
	c-0.43-3.163-0.38-5.582-6.492-5.582c-2.069,0-33.066,0-36.125,0c-3.061,0-5.072,2.578-5.072,5.973s0,5.973,0,5.973v0.318
	c0,0,0,2.578,0,5.973c0,3.393,2.011,5.969,5.072,5.969c3.059,0,34.057,0,36.125,0
	C-2521.396-115.862-2521.446-118.274-2521.016-121.441z M-2522.305-130.377v4.562c0,0.161-0.131,0.295-0.297,0.295
	c-0.159,0-0.294-0.133-0.294-0.295v-4.562c0-0.163,0.135-0.297,0.294-0.297C-2522.436-130.673-2522.305-130.54-2522.305-130.377z
	 M-2566.668-125.253c-0.248,0-0.455-0.203-0.455-0.453v-4.51c0-0.254,0.208-0.457,0.455-0.457h0.649
	c0.248,0,0.454,0.204,0.454,0.457v4.51c0,0.25-0.206,0.453-0.454,0.453H-2566.668L-2566.668-125.253z M-2562.317-117.737v-20.664
	h36.172v20.664H-2562.317z"/>
<path d="M-2873.684-299.282h-2.243c-0.88,0-1.612,0.65-1.741,1.495h-1.729v-2.723c0-1.706-1.318-3.109-2.989-3.245v-0.975
	c5.793-0.143,10.463-4.899,10.463-10.727c0-5.916-4.813-10.73-10.73-10.73c-5.214,0-9.736,3.839-10.615,8.968h-2.76
	c-0.877-5.129-5.369-8.969-10.541-8.969c-5.917,0-10.73,4.814-10.73,10.73c0,5.827,4.669,10.585,10.463,10.727v0.975
	c-1.671,0.136-2.989,1.54-2.989,3.245v4.217h-0.961v-1.228c0-0.972-0.79-1.762-1.762-1.762h-5.231c-0.971,0-1.762,0.79-1.762,1.762
	v13.453c0,0.972,0.79,1.762,1.762,1.762h5.231c0.972,0,1.762-0.79,1.762-1.762v-1.228h0.961v4.217c0,1.796,1.46,3.257,3.256,3.257
	h23.916c1.795,0,3.256-1.461,3.256-3.257v-8.701h1.729c0.129,0.845,0.86,1.494,1.741,1.494h2.243c0.971,0,1.761-0.79,1.761-1.761
	v-7.474C-2871.923-298.492-2872.713-299.282-2873.684-299.282z M-2912.814-284.335h-4.698v-12.919h4.698V-284.335z
	 M-2909.824-287.325h-0.961v-6.94h0.961V-287.325z M-2882.653-324.159c4.798,0,8.702,3.903,8.702,8.701
	c0,4.798-3.904,8.701-8.702,8.701c-4.797,0-8.701-3.903-8.701-8.701C-2891.354-320.255-2887.451-324.159-2882.653-324.159z
	 M-2895.842-315.19h2.462c0.129,5.111,3.924,9.496,8.966,10.349v1.075h-20.393v-1.076
	C-2899.766-305.706-2895.97-310.09-2895.842-315.19z M-2915.27-315.457c0-4.798,3.903-8.701,8.701-8.701
	c4.798,0,8.701,3.903,8.701,8.701s-3.904,8.701-8.701,8.701C-2911.366-306.756-2915.27-310.659-2915.27-315.457z M-2881.425-281.079
	c0,0.677-0.551,1.228-1.229,1.228h-23.915c-0.677,0-1.228-0.551-1.228-1.228v-19.431c0-0.677,0.55-1.228,1.228-1.228h23.915
	c0.677,0,1.229,0.55,1.229,1.228V-281.079z M-2877.688-291.809h-1.709v-3.95h1.709V-291.809L-2877.688-291.809z M-2873.951-290.314
	h-1.709v-6.94h1.709V-290.314L-2873.951-290.314z M-2882.653-310.706c2.62,0,4.751-2.132,4.751-4.751
	c0-2.62-2.132-4.751-4.751-4.751c-2.619,0-4.751,2.132-4.751,4.751C-2887.404-312.838-2885.273-310.706-2882.653-310.706z
	 M-2882.653-318.18c1.501,0,2.723,1.221,2.723,2.723s-1.221,2.723-2.723,2.723c-1.501,0-2.722-1.221-2.722-2.723
	S-2884.154-318.18-2882.653-318.18z M-2901.337-283.588h-2.99c-0.597,0-1.014,0.417-1.014,1.014c0,0.597,0.417,1.014,1.014,1.014
	h2.99c0.597,0,1.014-0.417,1.014-1.014C-2900.323-283.171-2900.74-283.588-2901.337-283.588z M-2890.127-293.303
	c-0.971,0-1.762,0.79-1.762,1.762c0,0.972,0.79,1.762,1.762,1.762c0.971,0,1.762-0.79,1.762-1.762
	C-2888.365-292.513-2889.155-293.303-2890.127-293.303z M-2884.147-299.282c-0.597,0-1.014,0.417-1.014,1.014
	s0.417,1.014,1.014,1.014c0.597,0,1.013-0.417,1.013-1.014S-2883.551-299.282-2884.147-299.282z M-2895.358-299.282h-8.222
	c-0.971,0-1.761,0.79-1.761,1.762v10.462c0,0.971,0.79,1.762,1.761,1.762h8.222c0.971,0,1.761-0.791,1.761-1.762v-10.463
	C-2893.597-298.492-2894.386-299.282-2895.358-299.282z M-2895.625-287.325h-7.688v-9.929h7.688V-287.325z M-2890.127-299.282
	c-0.971,0-1.762,0.79-1.762,1.762c0,0.971,0.79,1.762,1.762,1.762c0.971,0,1.762-0.79,1.762-1.762
	C-2888.365-298.492-2889.155-299.282-2890.127-299.282z M-2901.817-315.457c0-2.62-2.132-4.751-4.751-4.751
	c-2.62,0-4.75,2.132-4.75,4.751c0,2.619,2.131,4.751,4.75,4.751C-2903.949-310.706-2901.817-312.837-2901.817-315.457z
	 M-2909.291-315.457c0-1.501,1.221-2.723,2.723-2.723c1.501,0,2.722,1.221,2.722,2.723s-1.221,2.723-2.722,2.723
	C-2908.069-312.735-2909.291-313.956-2909.291-315.457z"/>
<path d="M-2523.426-299.282h-2.243c-0.88,0-1.612,0.65-1.741,1.495h-1.729v-2.723c0-1.706-1.319-3.109-2.99-3.245v-0.975
	c5.794-0.143,10.463-4.899,10.463-10.727c0-5.916-4.813-10.73-10.73-10.73c-5.214,0-9.737,3.839-10.615,8.968h-2.759
	c-0.878-5.129-5.369-8.969-10.541-8.969c-5.917,0-10.73,4.814-10.73,10.73c0,5.827,4.669,10.585,10.463,10.727v0.975
	c-1.671,0.136-2.989,1.54-2.989,3.245v4.217h-0.961v-1.228c0-0.972-0.79-1.762-1.762-1.762h-5.231c-0.971,0-1.762,0.79-1.762,1.762
	v13.453c0,0.972,0.79,1.762,1.762,1.762h5.231c0.972,0,1.762-0.79,1.762-1.762v-1.228h0.961v4.217c0,1.796,1.46,3.257,3.256,3.257
	h23.916c1.795,0,3.256-1.461,3.256-3.257v-8.701h1.729c0.129,0.845,0.86,1.494,1.741,1.494h2.243c0.971,0,1.761-0.79,1.761-1.761
	v-7.474C-2521.665-298.492-2522.455-299.282-2523.426-299.282z M-2562.556-284.335h-4.698v-12.919h4.698V-284.335z
	 M-2559.566-287.325h-0.961v-6.94h0.961V-287.325z M-2532.394-324.159c4.798,0,8.702,3.903,8.702,8.701
	c0,4.798-3.903,8.701-8.702,8.701c-4.798,0-8.701-3.903-8.701-8.701C-2541.096-320.255-2537.192-324.159-2532.394-324.159z
	 M-2545.583-315.19h2.462c0.129,5.111,3.924,9.496,8.966,10.349v1.075h-20.393v-1.076
	C-2549.507-305.706-2545.711-310.09-2545.583-315.19z M-2565.011-315.457c0-4.798,3.903-8.701,8.701-8.701s8.701,3.903,8.701,8.701
	s-3.903,8.701-8.701,8.701C-2561.107-306.756-2565.011-310.659-2565.011-315.457z M-2531.166-281.079
	c0,0.677-0.551,1.228-1.228,1.228h-23.916c-0.677,0-1.228-0.551-1.228-1.228v-19.431c0-0.677,0.55-1.228,1.228-1.228h23.916
	c0.677,0,1.228,0.55,1.228,1.228V-281.079z M-2527.429-291.809h-1.709v-3.95h1.709V-291.809L-2527.429-291.809z M-2523.692-290.314
	h-1.709v-6.94h1.709V-290.314L-2523.692-290.314z M-2532.394-310.706c2.619,0,4.751-2.132,4.751-4.751
	c0-2.62-2.132-4.751-4.751-4.751c-2.62,0-4.751,2.132-4.751,4.751C-2537.146-312.838-2535.014-310.706-2532.394-310.706z
	 M-2532.394-318.18c1.501,0,2.722,1.221,2.722,2.723s-1.221,2.723-2.722,2.723c-1.501,0-2.723-1.221-2.723-2.723
	S-2533.896-318.18-2532.394-318.18z M-2551.078-283.588h-2.99c-0.597,0-1.014,0.417-1.014,1.014c0,0.597,0.417,1.014,1.014,1.014
	h2.99c0.597,0,1.014-0.417,1.014-1.014C-2550.064-283.171-2550.481-283.588-2551.078-283.588z M-2539.868-293.303
	c-0.971,0-1.762,0.79-1.762,1.762c0,0.972,0.79,1.762,1.762,1.762c0.971,0,1.762-0.79,1.762-1.762
	C-2538.106-292.513-2538.896-293.303-2539.868-293.303z M-2533.889-299.282c-0.597,0-1.014,0.417-1.014,1.014
	s0.417,1.014,1.014,1.014c0.597,0,1.013-0.417,1.013-1.014S-2533.292-299.282-2533.889-299.282z M-2545.099-299.282h-8.222
	c-0.971,0-1.761,0.79-1.761,1.762v10.462c0,0.971,0.79,1.762,1.761,1.762h8.222c0.971,0,1.761-0.791,1.761-1.762v-10.463
	C-2543.338-298.492-2544.127-299.282-2545.099-299.282z M-2545.366-287.325h-7.688v-9.929h7.688V-287.325z M-2539.868-299.282
	c-0.971,0-1.762,0.79-1.762,1.762c0,0.971,0.79,1.762,1.762,1.762c0.971,0,1.762-0.79,1.762-1.762
	C-2538.106-298.492-2538.896-299.282-2539.868-299.282z M-2551.558-315.457c0-2.62-2.132-4.751-4.751-4.751s-4.75,2.132-4.75,4.751
	c0,2.619,2.131,4.751,4.75,4.751S-2551.558-312.837-2551.558-315.457z M-2559.032-315.457c0-1.501,1.221-2.723,2.722-2.723
	s2.722,1.221,2.722,2.723s-1.221,2.723-2.722,2.723C-2557.811-312.735-2559.032-313.956-2559.032-315.457z"/>
<rect x="-2623.956" y="-162.574" fill="none" stroke="#FFD25A" stroke-width="2" stroke-miterlimit="10" width="156" height="117"/>
<rect x="-2623.473" y="-207.865" fill="none" width="132.607" height="33.35"/>
<text transform="matrix(1 0 0 1 -2623.4731 -199.1054)" font-family="'Gotham-Medium'" font-size="12">Présence Céremonie </text>
<text transform="matrix(1 0 0 1 -2623.4731 -182.1054)" font-family="'Gotham-Book'" font-size="10">1</text>
<text transform="matrix(0.583 0 0 0.583 -2619.8931 -185.435)" font-family="'Gotham-Book'" font-size="10">ère </text>
<text transform="matrix(1 0 0 1 -2608.8804 -182.1054)" font-family="'Gotham-Book'" font-size="10">étape du deuil</text>
<g sketch:type="MSPage">
	<g transform="translate(-180.000000, -135.000000)" sketch:type="MSArtboardGroup">
		<path sketch:type="MSShapeGroup" d="M-2571.078-167.215v30.402h46.009v-30.402v-1.664l-6.274-4.801v-9.143l-8.365-8.365h-25.096
			v17.508l-6.274,4.801V-167.215z M-2568.987-167.85v2.4l4.183,3.207v-8.814L-2568.987-167.85z M-2527.161-167.85v2.4l-4.183,3.207
			v-8.814L-2527.161-167.85z M-2562.713-160.64l9.256,7.096h10.767l9.256-7.096v-20.091h-8.365v-8.365h-20.913V-160.64z
			 M-2527.161-162.822v23.036l-13.046-13.053L-2527.161-162.822z M-2529.237-138.905h-37.666l12.542-12.548h12.583
			L-2529.237-138.905z M-2568.987-139.778v-23.044l13.051,9.987L-2568.987-139.778z M-2534.271-182.822h-5.437v-5.437
			L-2534.271-182.822z M-2554.348-176.548l14.639,8.365l-14.639,8.365V-176.548z M-2552.256-172.951l8.365,4.768l-8.365,4.768
			V-172.951z"/>
	</g>
</g>
<g>
	<path d="M-2557.898-91.497c-4.049,0-7.383,3.334-7.383,7.383c0,4.049,3.334,7.383,7.383,7.383s7.383-3.334,7.383-7.383
		C-2550.516-88.163-2553.731-91.497-2557.898-91.497z M-2557.898-77.804c-3.453,0-6.192-2.858-6.192-6.192
		c0-3.453,2.858-6.192,6.192-6.192c3.334,0,6.192,2.858,6.192,6.192C-2551.587-80.661-2554.445-77.804-2557.898-77.804z"/>
	<path d="M-2531.702-91.497c-4.049,0-7.383,3.334-7.383,7.383c0,4.049,3.334,7.383,7.383,7.383s7.383-3.334,7.383-7.383
		C-2524.319-88.163-2527.534-91.497-2531.702-91.497z M-2531.702-77.804c-3.453,0-6.192-2.858-6.192-6.192
		c0-3.453,2.858-6.192,6.192-6.192c3.453,0,6.192,2.858,6.192,6.192C-2525.391-80.661-2528.249-77.804-2531.702-77.804z"/>
	<path d="M-2518.604-104h-52.393c-3.096,0-5.597,2.501-5.597,5.597v26.911c0,3.096,2.501,5.597,5.597,5.597h15.956
		c1.786,0,3.334-1.072,4.167-2.62l3.572-8.931c0.476-0.953,1.429-1.548,2.501-1.548c0.833,0,2.024,0.476,2.5,1.667l3.096,8.812
		c0.715,1.667,2.262,2.739,4.168,2.739h16.552c3.096,0,5.596-2.501,5.596-5.597v-26.911C-2512.888-101.5-2515.508-104-2518.604-104z
		 M-2515.27-71.374c0,1.786-1.429,3.215-3.215,3.215h-16.671c-0.833,0-1.548-0.476-1.905-1.191l-3.096-8.812
		c-0.833-1.905-2.62-3.215-4.763-3.215c-2.024,0-3.81,1.191-4.644,2.977l-3.572,8.931c-0.357,0.714-1.072,1.191-1.905,1.191h-15.956
		c-1.786,0-3.215-1.429-3.215-3.215v-26.792c0-1.786,1.429-3.215,3.215-3.215h52.393c1.786,0,3.215,1.429,3.215,3.215v26.911
		H-2515.27z"/>
	<path d="M-2531.702-89.711c-3.096,0-5.596,2.501-5.596,5.597c0,0.357,0.238,0.595,0.595,0.595c0.357,0,0.595-0.238,0.595-0.595
		c0-2.501,2.024-4.406,4.406-4.406c0.357,0,0.595-0.238,0.595-0.595C-2531.106-89.473-2531.344-89.711-2531.702-89.711z"/>
	<path d="M-2557.898-89.711c-3.096,0-5.596,2.501-5.596,5.597c0,0.357,0.238,0.595,0.595,0.595c0.357,0,0.595-0.238,0.595-0.595
		c0-2.501,2.024-4.406,4.406-4.406c0.357,0,0.595-0.238,0.595-0.595C-2557.303-89.473-2557.541-89.711-2557.898-89.711z"/>
</g>
<path d="M-2894.016,182.559c0.243-1.812,0.24-6.362,0.24-6.362v-0.318c0,0,0.003-4.554-0.24-6.364
	c-0.43-3.163-0.38-5.582-6.492-5.582c-2.069,0-33.066,0-36.125,0c-3.061,0-5.072,2.578-5.072,5.973s0,5.973,0,5.973v0.318
	c0,0,0,2.578,0,5.973c0,3.393,2.011,5.969,5.072,5.969c3.059,0,34.057,0,36.125,0
	C-2894.396,188.138-2894.446,185.726-2894.016,182.559z M-2895.305,173.623v4.562c0,0.161-0.131,0.294-0.297,0.294
	c-0.159,0-0.294-0.133-0.294-0.294v-4.562c0-0.163,0.135-0.297,0.294-0.297C-2895.436,173.327-2895.305,173.46-2895.305,173.623z
	 M-2939.668,178.747c-0.248,0-0.455-0.203-0.455-0.453v-4.51c0-0.254,0.208-0.457,0.455-0.457h0.649
	c0.248,0,0.454,0.204,0.454,0.457v4.51c0,0.25-0.206,0.453-0.454,0.453H-2939.668L-2939.668,178.747z M-2935.317,186.263v-20.664
	h36.172v20.664H-2935.317z"/>
<rect x="-2996.956" y="141.426" fill="none" stroke="#FFD25A" stroke-width="2" stroke-miterlimit="10" width="156" height="117"/>
<rect x="-2996.473" y="96.135" fill="none" width="132.607" height="33.35"/>
<text transform="matrix(1 0 0 1 -2996.4731 104.8946)" font-family="'Gotham-Medium'" font-size="12">Présence Céremonie </text>
<text transform="matrix(1 0 0 1 -2996.4731 121.8946)" font-family="'Gotham-Book'" font-size="10">1</text>
<text transform="matrix(0.583 0 0 0.583 -2992.8931 118.565)" font-family="'Gotham-Book'" font-size="10">ère </text>
<text transform="matrix(1 0 0 1 -2981.8804 121.8946)" font-family="'Gotham-Book'" font-size="10">étape du deuil</text>
<g>
	<path d="M-2930.898,212.503c-4.049,0-7.383,3.334-7.383,7.383c0,4.049,3.334,7.383,7.383,7.383s7.383-3.334,7.383-7.383
		C-2923.516,215.837-2926.731,212.503-2930.898,212.503z M-2930.898,226.196c-3.453,0-6.192-2.858-6.192-6.192
		c0-3.453,2.858-6.192,6.192-6.192c3.334,0,6.192,2.858,6.192,6.192C-2924.587,223.339-2927.445,226.196-2930.898,226.196z"/>
	<path d="M-2904.702,212.503c-4.049,0-7.383,3.334-7.383,7.383c0,4.049,3.334,7.383,7.383,7.383s7.383-3.334,7.383-7.383
		C-2897.319,215.837-2900.534,212.503-2904.702,212.503z M-2904.702,226.196c-3.453,0-6.192-2.858-6.192-6.192
		c0-3.453,2.858-6.192,6.192-6.192c3.453,0,6.192,2.858,6.192,6.192C-2898.391,223.339-2901.249,226.196-2904.702,226.196z"/>
	<path d="M-2891.604,200h-52.393c-3.096,0-5.597,2.501-5.597,5.597v26.911c0,3.096,2.501,5.597,5.597,5.597h15.956
		c1.786,0,3.334-1.072,4.167-2.62l3.572-8.931c0.476-0.953,1.429-1.548,2.501-1.548c0.833,0,2.024,0.476,2.5,1.667l3.096,8.812
		c0.715,1.667,2.262,2.739,4.168,2.739h16.552c3.096,0,5.596-2.501,5.596-5.597v-26.911C-2885.888,202.5-2888.508,200-2891.604,200z
		 M-2888.27,232.626c0,1.786-1.429,3.215-3.215,3.215h-16.671c-0.833,0-1.548-0.476-1.905-1.191l-3.096-8.812
		c-0.833-1.905-2.62-3.215-4.763-3.215c-2.024,0-3.81,1.191-4.644,2.977l-3.572,8.931c-0.357,0.714-1.072,1.191-1.905,1.191h-15.956
		c-1.786,0-3.215-1.429-3.215-3.215v-26.792c0-1.786,1.429-3.215,3.215-3.215h52.393c1.786,0,3.215,1.429,3.215,3.215v26.911
		H-2888.27z"/>
	<path d="M-2904.702,214.289c-3.096,0-5.596,2.501-5.596,5.597c0,0.357,0.238,0.595,0.595,0.595c0.357,0,0.595-0.238,0.595-0.595
		c0-2.501,2.024-4.406,4.406-4.406c0.357,0,0.595-0.238,0.595-0.595S-2904.344,214.289-2904.702,214.289z"/>
	<path d="M-2930.898,214.289c-3.096,0-5.596,2.501-5.596,5.597c0,0.357,0.238,0.595,0.595,0.595c0.357,0,0.595-0.238,0.595-0.595
		c0-2.501,2.024-4.406,4.406-4.406c0.357,0,0.595-0.238,0.595-0.595S-2930.541,214.289-2930.898,214.289z"/>
</g>
<rect x="-2997.956" y="359.426" fill="none" stroke="#FFD25A" stroke-width="2" stroke-miterlimit="10" width="156" height="117"/>
<rect x="-2997.473" y="314.135" fill="none" width="155.011" height="33.35"/>
<text transform="matrix(1 0 0 1 -2997.4731 322.8946)"><tspan x="0" y="0" font-family="'Gotham-Medium'" font-size="12">Redifusion du contenu </tspan><tspan x="0" y="17" font-family="'Gotham-Book'" font-size="10">Sous-titré</tspan></text>
<rect x="-2809.021" y="314.135" fill="none" width="155.011" height="33.35"/>
<text transform="matrix(1 0 0 1 -2809.0217 322.8946)"><tspan x="0" y="0" font-family="'Gotham-Medium'" font-size="12">Explication cardboard </tspan><tspan x="0" y="17" font-family="'Gotham-Book'" font-size="10">Personnalisé</tspan></text>
<rect x="-2622.979" y="314.135" fill="none" width="155.011" height="33.35"/>
<text transform="matrix(1 0 0 1 -2622.979 322.8946)"><tspan x="0" y="0" font-family="'Gotham-Medium'" font-size="12">Onrement </tspan><tspan x="0" y="17" font-family="'Gotham-Book'" font-size="10">Matériel éléctronique</tspan></text>
<path d="M-2293.212-121.441c0.243-1.812,0.24-6.362,0.24-6.362v-0.318c0,0,0.003-4.554-0.24-6.364
	c-0.43-3.163-0.38-5.582-6.492-5.582c-2.068,0-33.066,0-36.125,0c-3.061,0-5.072,2.578-5.072,5.973s0,5.973,0,5.973v0.318
	c0,0,0,2.578,0,5.973c0,3.393,2.011,5.969,5.072,5.969c3.059,0,34.057,0,36.125,0
	C-2293.592-115.862-2293.642-118.274-2293.212-121.441z M-2294.501-130.377v4.562c0,0.161-0.131,0.295-0.297,0.295
	c-0.159,0-0.294-0.133-0.294-0.295v-4.562c0-0.163,0.135-0.297,0.294-0.297C-2294.632-130.673-2294.501-130.54-2294.501-130.377z
	 M-2338.864-125.253c-0.248,0-0.455-0.203-0.455-0.453v-4.51c0-0.254,0.208-0.457,0.455-0.457h0.649
	c0.248,0,0.454,0.204,0.454,0.457v4.51c0,0.25-0.206,0.453-0.454,0.453H-2338.864L-2338.864-125.253z M-2334.513-117.737v-20.664
	h36.172v20.664H-2334.513z"/>
<rect x="-2423.956" y="-162.574" fill="none" stroke="#FFD25A" stroke-width="2" stroke-miterlimit="10" width="156" height="117"/>
<rect x="-2423.473" y="-207.865" fill="none" width="163.269" height="33.35"/>
<text transform="matrix(1 0 0 1 -2423.4731 -199.1059)"><tspan x="0" y="0" font-family="'Gotham-Medium'" font-size="12">Accès aux vidéox du défun </tspan><tspan x="0" y="17" font-family="'Gotham-Book'" font-size="10">Héritage / souvenirs</tspan></text>
<g>
	<path d="M-2330.094-91.497c-4.049,0-7.383,3.334-7.383,7.383c0,4.049,3.334,7.383,7.383,7.383s7.383-3.334,7.383-7.383
		C-2322.712-88.163-2325.927-91.497-2330.094-91.497z M-2330.094-77.804c-3.453,0-6.192-2.858-6.192-6.192
		c0-3.453,2.858-6.192,6.192-6.192c3.334,0,6.192,2.858,6.192,6.192C-2323.783-80.661-2326.641-77.804-2330.094-77.804z"/>
	<path d="M-2303.898-91.497c-4.049,0-7.383,3.334-7.383,7.383c0,4.049,3.334,7.383,7.383,7.383s7.383-3.334,7.383-7.383
		C-2296.515-88.163-2299.73-91.497-2303.898-91.497z M-2303.898-77.804c-3.453,0-6.192-2.858-6.192-6.192
		c0-3.453,2.858-6.192,6.192-6.192c3.453,0,6.192,2.858,6.192,6.192C-2297.587-80.661-2300.445-77.804-2303.898-77.804z"/>
	<path d="M-2290.8-104h-52.393c-3.096,0-5.596,2.501-5.596,5.597v26.911c0,3.096,2.5,5.597,5.596,5.597h15.956
		c1.786,0,3.334-1.072,4.168-2.62l3.572-8.931c0.476-0.953,1.429-1.548,2.5-1.548c0.833,0,2.024,0.476,2.501,1.667l3.096,8.812
		c0.714,1.667,2.262,2.739,4.167,2.739h16.552c3.096,0,5.596-2.501,5.596-5.597v-26.911C-2285.084-101.5-2287.704-104-2290.8-104z
		 M-2287.465-71.374c0,1.786-1.429,3.215-3.215,3.215h-16.67c-0.834,0-1.548-0.476-1.905-1.191l-3.096-8.812
		c-0.833-1.905-2.62-3.215-4.763-3.215c-2.024,0-3.81,1.191-4.644,2.977l-3.572,8.931c-0.357,0.714-1.072,1.191-1.905,1.191h-15.956
		c-1.786,0-3.215-1.429-3.215-3.215v-26.792c0-1.786,1.429-3.215,3.215-3.215h52.393c1.786,0,3.215,1.429,3.215,3.215v26.911
		H-2287.465z"/>
	<path d="M-2303.898-89.711c-3.096,0-5.597,2.501-5.597,5.597c0,0.357,0.238,0.595,0.595,0.595s0.595-0.238,0.595-0.595
		c0-2.501,2.024-4.406,4.406-4.406c0.357,0,0.595-0.238,0.595-0.595C-2303.302-89.473-2303.541-89.711-2303.898-89.711z"/>
	<path d="M-2330.094-89.711c-3.096,0-5.597,2.501-5.597,5.597c0,0.357,0.238,0.595,0.595,0.595s0.595-0.238,0.595-0.595
		c0-2.501,2.024-4.406,4.406-4.406c0.357,0,0.595-0.238,0.595-0.595C-2329.499-89.473-2329.737-89.711-2330.094-89.711z"/>
</g>
<path fill="#F4F4F4" d="M-2366.667,112.868c0.243-1.812,0.24-6.362,0.24-6.362v-0.318c0,0,0.003-4.554-0.24-6.364
	c-0.43-3.163-0.38-5.582-6.492-5.582c-2.068,0-33.066,0-36.125,0c-3.061,0-5.072,2.578-5.072,5.973s0,5.973,0,5.973v0.318
	c0,0,0,2.578,0,5.973c0,3.393,2.011,5.969,5.072,5.969c3.059,0,34.057,0,36.125,0
	C-2367.048,118.448-2367.098,116.036-2366.667,112.868z M-2367.956,103.933v4.562c0,0.161-0.131,0.294-0.297,0.294
	c-0.159,0-0.294-0.133-0.294-0.294v-4.562c0-0.163,0.135-0.297,0.294-0.297C-2368.087,103.637-2367.956,103.77-2367.956,103.933z
	 M-2412.319,109.057c-0.248,0-0.455-0.203-0.455-0.453v-4.51c0-0.254,0.208-0.457,0.455-0.457h0.649
	c0.248,0,0.454,0.204,0.454,0.457v4.51c0,0.25-0.206,0.453-0.454,0.453L-2412.319,109.057L-2412.319,109.057z M-2407.969,116.572
	V95.908h36.172v20.664H-2407.969z"/>
<g>
	<path fill="#F4F4F4" d="M-2337.979,145.374c-4.049,0-7.383,3.334-7.383,7.383c0,4.049,3.334,7.383,7.383,7.383
		s7.383-3.334,7.383-7.383C-2330.596,148.708-2333.811,145.374-2337.979,145.374z M-2337.979,159.068
		c-3.453,0-6.192-2.858-6.192-6.192c0-3.453,2.858-6.192,6.192-6.192c3.334,0,6.192,2.858,6.192,6.192
		C-2331.667,156.21-2334.525,159.068-2337.979,159.068z"/>
	<path fill="#F4F4F4" d="M-2311.782,145.374c-4.049,0-7.383,3.334-7.383,7.383c0,4.049,3.334,7.383,7.383,7.383
		s7.383-3.334,7.383-7.383C-2304.399,148.708-2307.615,145.374-2311.782,145.374z M-2311.782,159.068
		c-3.453,0-6.192-2.858-6.192-6.192c0-3.453,2.858-6.192,6.192-6.192c3.453,0,6.192,2.858,6.192,6.192
		C-2305.471,156.21-2308.329,159.068-2311.782,159.068z"/>
	<path fill="#F4F4F4" d="M-2298.684,132.871h-52.393c-3.096,0-5.596,2.501-5.596,5.597v26.911c0,3.096,2.5,5.597,5.596,5.597h15.956
		c1.786,0,3.334-1.072,4.168-2.62l3.572-8.931c0.476-0.953,1.429-1.548,2.5-1.548c0.833,0,2.024,0.476,2.501,1.667l3.096,8.812
		c0.714,1.667,2.262,2.739,4.167,2.739h16.552c3.096,0,5.597-2.501,5.597-5.597v-26.911
		C-2292.968,135.372-2295.588,132.871-2298.684,132.871z M-2295.35,165.498c0,1.786-1.429,3.215-3.215,3.215h-16.67
		c-0.833,0-1.548-0.476-1.905-1.191l-3.096-8.812c-0.833-1.905-2.62-3.215-4.763-3.215c-2.024,0-3.811,1.191-4.644,2.977
		l-3.572,8.931c-0.357,0.714-1.072,1.191-1.905,1.191h-15.956c-1.786,0-3.215-1.429-3.215-3.215v-26.792
		c0-1.786,1.429-3.215,3.215-3.215h52.393c1.786,0,3.215,1.429,3.215,3.215v26.911H-2295.35z"/>
	<path fill="#F4F4F4" d="M-2311.782,147.16c-3.096,0-5.597,2.501-5.597,5.597c0,0.357,0.238,0.595,0.595,0.595
		s0.595-0.238,0.595-0.595c0-2.501,2.024-4.406,4.406-4.406c0.357,0,0.595-0.238,0.595-0.595S-2311.425,147.16-2311.782,147.16z"/>
	<path fill="#F4F4F4" d="M-2337.979,147.16c-3.096,0-5.597,2.501-5.597,5.597c0,0.357,0.238,0.595,0.595,0.595
		s0.595-0.238,0.595-0.595c0-2.501,2.024-4.406,4.406-4.406c0.357,0,0.595-0.238,0.595-0.595S-2337.621,147.16-2337.979,147.16z"/>
</g>
<g>
	<g>
		<line fill="none" stroke="#000000" stroke-miterlimit="10" x1="-2253.956" y1="-4.074" x2="-2259.956" y2="-4.074"/>
		
			<line fill="none" stroke="#000000" stroke-miterlimit="10" stroke-dasharray="12,12" x1="-2271.956" y1="-4.074" x2="-3104.956" y2="-4.074"/>
		<line fill="none" stroke="#000000" stroke-miterlimit="10" x1="-3110.956" y1="-4.074" x2="-3116.956" y2="-4.074"/>
	</g>
</g>
<g>
	<g>
		<line fill="none" stroke="#000000" stroke-miterlimit="10" x1="-2449.456" y1="-402.574" x2="-2449.456" y2="-396.574"/>
		
			<line fill="none" stroke="#000000" stroke-miterlimit="10" stroke-dasharray="12,12" x1="-2449.456" y1="-384.574" x2="-2449.456" y2="-56.574"/>
		<line fill="none" stroke="#000000" stroke-miterlimit="10" x1="-2449.456" y1="-50.574" x2="-2449.456" y2="-44.574"/>
	</g>
</g>
<g>
	<g>
		<line fill="none" stroke="#000000" stroke-miterlimit="10" x1="-2639.456" y1="-402.574" x2="-2639.456" y2="-396.574"/>
		
			<line fill="none" stroke="#000000" stroke-miterlimit="10" stroke-dasharray="12,12" x1="-2639.456" y1="-384.574" x2="-2639.456" y2="-56.574"/>
		<line fill="none" stroke="#000000" stroke-miterlimit="10" x1="-2639.456" y1="-50.574" x2="-2639.456" y2="-44.574"/>
	</g>
</g>
<g>
	<g>
		<line fill="none" stroke="#000000" stroke-miterlimit="10" x1="-3429.456" y1="-4.574" x2="-3429.456" y2="1.426"/>
		
			<line fill="none" stroke="#000000" stroke-miterlimit="10" stroke-dasharray="12,12" x1="-3429.456" y1="13.426" x2="-3429.456" y2="154.426"/>
		<line fill="none" stroke="#000000" stroke-miterlimit="10" x1="-3429.456" y1="160.426" x2="-3429.456" y2="166.426"/>
	</g>
</g>
<g>
	<g>
		<line fill="none" stroke="#000000" stroke-miterlimit="10" x1="-2467.956" y1="278.926" x2="-2473.956" y2="278.926"/>
		
			<line fill="none" stroke="#000000" stroke-miterlimit="10" stroke-dasharray="12,12" x1="-2485.956" y1="278.926" x2="-2985.956" y2="278.926"/>
		<line fill="none" stroke="#000000" stroke-miterlimit="10" x1="-2991.956" y1="278.926" x2="-2997.956" y2="278.926"/>
	</g>
</g>
<path d="M-2389.17-144.991c-6.222,0-11.263,5.042-11.263,11.263c0,2.431,0.787,5.221,2.11,7.08l9.154,13.838l9.154-13.838
	c1.323-1.859,2.11-4.613,2.11-7.08C-2377.907-139.949-2382.949-144.991-2389.17-144.991z M-2389.17-129.436
	c-2.36,0-4.291-1.931-4.291-4.291s1.931-4.291,4.291-4.291c2.36,0,4.291,1.931,4.291,4.291S-2386.811-129.436-2389.17-129.436z"/>
<g>
	<path d="M-2389.17-67.97c8.562,0,15.55-6.988,15.55-15.55s-6.988-15.55-15.55-15.55s-15.55,6.988-15.55,15.55
		S-2397.732-67.97-2389.17-67.97z M-2389.17-97.24c7.573,0,13.72,6.147,13.72,13.72c0,7.574-6.147,13.72-13.72,13.72
		c-7.574,0-13.72-6.147-13.72-13.72S-2396.744-97.24-2389.17-97.24z"/>
	<polygon points="-2381.853,-84.434 -2388.256,-84.434 -2388.256,-94.496 -2390.085,-94.496 -2390.085,-82.605 -2381.853,-82.605 	
		"/>
</g>
<path d="M-2678.212,182.559c0.243-1.812,0.24-6.362,0.24-6.362v-0.318c0,0,0.003-4.554-0.24-6.364
	c-0.43-3.163-0.38-5.582-6.492-5.582c-2.068,0-33.066,0-36.125,0c-3.061,0-5.072,2.578-5.072,5.973s0,5.973,0,5.973v0.318
	c0,0,0,2.578,0,5.973c0,3.393,2.011,5.969,5.072,5.969c3.059,0,34.057,0,36.125,0
	C-2678.592,188.138-2678.642,185.726-2678.212,182.559z M-2679.501,173.623v4.562c0,0.161-0.131,0.294-0.297,0.294
	c-0.159,0-0.294-0.133-0.294-0.294v-4.562c0-0.163,0.135-0.297,0.294-0.297C-2679.632,173.327-2679.501,173.46-2679.501,173.623z
	 M-2723.864,178.747c-0.248,0-0.455-0.203-0.455-0.453v-4.51c0-0.254,0.208-0.457,0.455-0.457h0.649
	c0.248,0,0.454,0.204,0.454,0.457v4.51c0,0.25-0.206,0.453-0.454,0.453H-2723.864L-2723.864,178.747z M-2719.513,186.263v-20.664
	h36.172v20.664H-2719.513z"/>
<rect x="-2808.956" y="141.426" fill="none" stroke="#FFD25A" stroke-width="2" stroke-miterlimit="10" width="156" height="117"/>
<rect x="-2809.473" y="96.135" fill="none" width="163.269" height="33.35"/>
<text transform="matrix(1 0 0 1 -2809.4731 104.8941)"><tspan x="0" y="0" font-family="'Gotham-Medium'" font-size="12">Accès aux vidéox du défun </tspan><tspan x="0" y="17" font-family="'Gotham-Book'" font-size="10">Héritage / souvenirs</tspan></text>
<rect x="-2828.329" y="195.628" fill="none" width="13.311" height="27.754"/>
<text transform="matrix(1 0 0 1 -2828.3286 204.3872)" font-family="'Gotham-Medium'" font-size="12">+</text>
<g>
	<path d="M-2715.094,212.503c-4.049,0-7.383,3.334-7.383,7.383c0,4.049,3.334,7.383,7.383,7.383s7.383-3.334,7.383-7.383
		C-2707.712,215.837-2710.927,212.503-2715.094,212.503z M-2715.094,226.196c-3.453,0-6.192-2.858-6.192-6.192
		c0-3.453,2.858-6.192,6.192-6.192c3.334,0,6.192,2.858,6.192,6.192C-2708.783,223.339-2711.641,226.196-2715.094,226.196z"/>
	<path d="M-2688.898,212.503c-4.049,0-7.383,3.334-7.383,7.383c0,4.049,3.334,7.383,7.383,7.383s7.383-3.334,7.383-7.383
		C-2681.515,215.837-2684.73,212.503-2688.898,212.503z M-2688.898,226.196c-3.453,0-6.192-2.858-6.192-6.192
		c0-3.453,2.858-6.192,6.192-6.192c3.453,0,6.192,2.858,6.192,6.192C-2682.587,223.339-2685.445,226.196-2688.898,226.196z"/>
	<path d="M-2675.8,200h-52.393c-3.096,0-5.596,2.501-5.596,5.597v26.911c0,3.096,2.5,5.597,5.596,5.597h15.956
		c1.786,0,3.334-1.072,4.168-2.62l3.572-8.931c0.476-0.953,1.429-1.548,2.5-1.548c0.833,0,2.024,0.476,2.501,1.667l3.096,8.812
		c0.714,1.667,2.262,2.739,4.167,2.739h16.552c3.096,0,5.596-2.501,5.596-5.597v-26.911C-2670.084,202.5-2672.704,200-2675.8,200z
		 M-2672.465,232.626c0,1.786-1.429,3.215-3.215,3.215h-16.67c-0.834,0-1.548-0.476-1.905-1.191l-3.096-8.812
		c-0.833-1.905-2.62-3.215-4.763-3.215c-2.024,0-3.81,1.191-4.644,2.977l-3.572,8.931c-0.357,0.714-1.072,1.191-1.905,1.191h-15.956
		c-1.786,0-3.215-1.429-3.215-3.215v-26.792c0-1.786,1.429-3.215,3.215-3.215h52.393c1.786,0,3.215,1.429,3.215,3.215v26.911
		H-2672.465z"/>
	<path d="M-2688.898,214.289c-3.096,0-5.597,2.501-5.597,5.597c0,0.357,0.238,0.595,0.595,0.595s0.595-0.238,0.595-0.595
		c0-2.501,2.024-4.406,4.406-4.406c0.357,0,0.595-0.238,0.595-0.595S-2688.541,214.289-2688.898,214.289z"/>
	<path d="M-2715.094,214.289c-3.096,0-5.597,2.501-5.597,5.597c0,0.357,0.238,0.595,0.595,0.595s0.595-0.238,0.595-0.595
		c0-2.501,2.024-4.406,4.406-4.406c0.357,0,0.595-0.238,0.595-0.595S-2714.737,214.289-2715.094,214.289z"/>
</g>
<rect x="-2808.956" y="359.426" fill="none" stroke="#FFD25A" stroke-width="2" stroke-miterlimit="10" width="156" height="117"/>
<rect x="-2623.956" y="359.426" fill="none" stroke="#FFD25A" stroke-width="2" stroke-miterlimit="10" width="156" height="117"/>
<g>
	<path d="M-2740.996,411.391c-4.049,0-7.383,3.334-7.383,7.383c0,4.049,3.334,7.383,7.383,7.383s7.383-3.334,7.383-7.383
		C-2733.614,414.725-2736.829,411.391-2740.996,411.391z M-2740.996,425.085c-3.453,0-6.192-2.858-6.192-6.192
		c0-3.453,2.858-6.192,6.192-6.192c3.334,0,6.192,2.858,6.192,6.192C-2734.685,422.227-2737.543,425.085-2740.996,425.085z"/>
	<path d="M-2714.8,411.391c-4.049,0-7.383,3.334-7.383,7.383c0,4.049,3.334,7.383,7.383,7.383s7.383-3.334,7.383-7.383
		C-2707.417,414.725-2710.632,411.391-2714.8,411.391z M-2714.8,425.085c-3.453,0-6.192-2.858-6.192-6.192
		c0-3.453,2.858-6.192,6.192-6.192c3.453,0,6.192,2.858,6.192,6.192C-2708.489,422.227-2711.347,425.085-2714.8,425.085z"/>
	<path d="M-2701.702,398.888h-52.393c-3.096,0-5.596,2.501-5.596,5.597v26.911c0,3.096,2.5,5.597,5.596,5.597h15.956
		c1.786,0,3.334-1.072,4.168-2.62l3.572-8.931c0.476-0.953,1.429-1.548,2.5-1.548c0.833,0,2.024,0.476,2.501,1.667l3.096,8.812
		c0.714,1.667,2.262,2.739,4.167,2.739h16.552c3.096,0,5.596-2.501,5.596-5.597v-26.911
		C-2695.986,401.389-2698.606,398.888-2701.702,398.888z M-2698.367,431.515c0,1.786-1.429,3.215-3.215,3.215h-16.67
		c-0.834,0-1.548-0.476-1.905-1.191l-3.096-8.812c-0.833-1.905-2.62-3.215-4.763-3.215c-2.024,0-3.811,1.191-4.644,2.977
		l-3.572,8.931c-0.357,0.714-1.072,1.191-1.905,1.191h-15.956c-1.786,0-3.215-1.429-3.215-3.215v-26.792
		c0-1.786,1.429-3.215,3.215-3.215h52.393c1.786,0,3.215,1.429,3.215,3.215v26.911H-2698.367z"/>
	<path d="M-2714.8,413.177c-3.096,0-5.597,2.501-5.597,5.597c0,0.357,0.238,0.595,0.595,0.595s0.595-0.238,0.595-0.595
		c0-2.501,2.024-4.406,4.406-4.406c0.357,0,0.595-0.238,0.595-0.595C-2714.205,413.415-2714.443,413.177-2714.8,413.177z"/>
	<path d="M-2740.996,413.177c-3.096,0-5.597,2.501-5.597,5.597c0,0.357,0.238,0.595,0.595,0.595s0.595-0.238,0.595-0.595
		c0-2.501,2.024-4.406,4.406-4.406c0.357,0,0.595-0.238,0.595-0.595C-2740.401,413.415-2740.639,413.177-2740.996,413.177z"/>
</g>
<path d="M-2774.17,161.009c-6.222,0-11.263,5.042-11.263,11.263c0,2.431,0.787,5.221,2.11,7.08l9.154,13.838l9.154-13.838
	c1.323-1.859,2.11-4.613,2.11-7.08C-2762.907,166.051-2767.949,161.009-2774.17,161.009z M-2774.17,176.564
	c-2.36,0-4.291-1.931-4.291-4.291s1.931-4.291,4.291-4.291c2.36,0,4.291,1.931,4.291,4.291S-2771.811,176.564-2774.17,176.564z"/>
<g>
	<path d="M-2774.17,236.03c8.562,0,15.55-6.988,15.55-15.55s-6.988-15.55-15.55-15.55s-15.55,6.988-15.55,15.55
		C-2789.72,229.042-2782.732,236.03-2774.17,236.03z M-2774.17,206.76c7.573,0,13.72,6.147,13.72,13.72s-6.147,13.72-13.72,13.72
		c-7.574,0-13.72-6.147-13.72-13.72S-2781.744,206.76-2774.17,206.76z"/>
	<polygon points="-2766.853,219.566 -2773.256,219.566 -2773.256,209.504 -2775.085,209.504 -2775.085,221.395 -2766.853,221.395 	
		"/>
</g>
<g>
	<path d="M-2879.128,385.835h-80.685c-2.096,0-3.799,1.697-3.799,3.794v47.703c0,2.096,1.703,3.794,3.799,3.794h34.409l-3.129,8.017
		h-1.319v1.023h19.94v-1.023h-1.324l-3.17-8.017h35.278c2.096,0,3.794-1.697,3.794-3.794v-47.703
		C-2875.329,387.533-2877.031,385.835-2879.128,385.835z M-2922.081,435.67c0-1.442,1.171-2.613,2.613-2.613
		s2.607,1.171,2.607,2.613s-1.166,2.608-2.607,2.608S-2922.081,437.111-2922.081,435.67z M-2879.128,429.263h-80.685v-39.635h80.685
		V429.263z"/>
</g>
<path d="M-2514.776,396.228v-2.665h-6.662v-6.662h-2.665v6.662h-5.329v-6.662h-2.665v6.662h-5.329v-6.662h-2.665v6.662h-5.329
	v-6.662h-2.665v6.662h-5.329v-6.662h-2.665v6.662h-5.329v-6.662h-2.665v6.662h-5.329v-6.662h-2.665v6.662h-6.662v2.665h6.662v5.329
	h-6.662v2.665h6.662v5.329h-6.662v2.665h6.662v5.329h-6.662v2.665h6.662v5.328h-6.662v2.665h6.662v5.329h-6.662v2.665h6.662v5.329
	h-6.662v2.665h6.662v6.662h2.665v-6.662h5.329v6.662h2.665v-6.662h5.329v6.662h2.665v-6.662h5.329v6.662h2.665v-6.662h5.329v6.662
	h2.665v-6.662h5.329v6.662h2.665v-6.662h5.329v6.662h2.665v-6.662h6.662v-2.665h-6.662v-5.329h6.662v-2.665h-6.662v-5.329h6.662
	v-2.665h-6.662v-5.328h6.662v-2.665h-6.662v-5.329h6.662v-2.665h-6.662v-5.329h6.662v-2.665h-6.662v-5.329H-2514.776z
	 M-2532.096,396.228v5.329h-5.329v-5.329H-2532.096z M-2548.083,420.21v5.328h-5.329v-5.328H-2548.083z M-2553.413,417.545v-5.329
	h5.329v5.329H-2553.413z M-2545.419,420.21h5.329v5.328h-5.329V420.21z M-2545.419,417.545v-5.329h5.329v5.329H-2545.419z
	 M-2545.419,409.551v-5.329h5.329v5.329H-2545.419z M-2548.083,409.551h-5.329v-5.329h5.329V409.551z M-2556.077,409.551h-5.329
	v-5.329h5.329V409.551z M-2556.077,412.216v5.329h-5.329v-5.329H-2556.077z M-2556.077,420.21v5.328h-5.329v-5.328H-2556.077z
	 M-2556.077,428.203v5.329h-5.329v-5.329H-2556.077z M-2553.413,428.203h5.329v5.329h-5.329V428.203z M-2545.419,428.203h5.329
	v5.329h-5.329V428.203z M-2537.425,428.203h5.329v5.329h-5.329V428.203z M-2537.425,425.538v-5.328h5.329v5.328H-2537.425z
	 M-2537.425,417.545v-5.329h5.329v5.329H-2537.425z M-2537.425,409.551v-5.329h5.329v5.329H-2537.425z M-2540.09,396.228v5.329
	h-5.329v-5.329H-2540.09z M-2548.083,396.228v5.329h-5.329v-5.329H-2548.083z M-2556.077,396.228v5.329h-5.329v-5.329H-2556.077z
	 M-2569.4,396.228h5.329v5.329h-5.329V396.228z M-2569.4,404.222h5.329v5.329h-5.329V404.222z M-2569.4,412.216h5.329v5.329h-5.329
	V412.216z M-2569.4,420.21h5.329v5.328h-5.329V420.21z M-2569.4,428.203h5.329v5.329h-5.329V428.203z M-2569.4,441.526v-5.329h5.329
	v5.329H-2569.4z M-2561.406,441.526v-5.329h5.329v5.329H-2561.406z M-2553.413,441.526v-5.329h5.329v5.329H-2553.413z
	 M-2545.419,441.526v-5.329h5.329v5.329H-2545.419z M-2537.425,441.526v-5.329h5.329v5.329H-2537.425z M-2524.102,441.526h-5.329
	v-5.329h5.329V441.526z M-2524.102,433.532h-5.329v-5.329h5.329V433.532z M-2524.102,425.538h-5.329v-5.328h5.329V425.538z
	 M-2524.102,417.545h-5.329v-5.329h5.329V417.545z M-2524.102,409.551h-5.329v-5.329h5.329V409.551z M-2524.102,401.557h-5.329
	v-5.329h5.329V401.557z"/>
<rect x="-1506.956" y="-357.574" fill="none" stroke="#FFD25A" stroke-width="2" stroke-miterlimit="10" width="156" height="117"/>
<rect x="-1693.956" y="-357.574" fill="none" stroke="#FFD25A" stroke-width="2" stroke-miterlimit="10" width="156" height="117"/>
<rect x="-1319.956" y="-357.574" fill="none" stroke="#FFD25A" stroke-width="2" stroke-miterlimit="10" width="156" height="117"/>
<rect x="-1992.62" y="-301.479" fill="none" width="106.132" height="14.485"/>
<text transform="matrix(1 0 0 1 -1986.9147 -292.7189)" font-family="'Gotham-Black'" font-size="12">Protagoniste</text>
<rect x="-1768.605" y="-472.718" fill="none" width="106.132" height="14.485"/>
<text transform="matrix(1 0 0 1 -1699.6124 -463.9585)" font-family="'Gotham-Black'" font-size="12">crise</text>
<rect x="-1491.973" y="-472.718" fill="none" width="106.132" height="14.485"/>
<text transform="matrix(1 0 0 1 -1406.9598 -463.9585)" font-family="'Gotham-Black'" font-size="12">fin</text>
<rect x="-1251.595" y="-476.408" fill="none" width="106.132" height="14.485"/>
<text transform="matrix(1 0 0 1 -1236.3492 -467.6483)" font-family="'Gotham-Black'" font-size="12">renaissance</text>
<rect x="-1506.473" y="-402.865" fill="none" width="132.607" height="33.35"/>
<text transform="matrix(1 0 0 1 -1506.473 -394.1054)"><tspan x="0" y="0" font-family="'Gotham-Medium'" font-size="12">Envie de transmettre</tspan><tspan x="0" y="17" font-family="'Gotham-Book'" font-size="10">Lieux / Messages</tspan></text>
<rect x="-1319.473" y="-402.865" fill="none" width="132.607" height="33.35"/>
<text transform="matrix(1 0 0 1 -1319.473 -394.1054)"><tspan x="0" y="0" font-family="'Gotham-Medium'" font-size="12">Envoi de la vidéo  </tspan><tspan x="0" y="17" font-family="'Gotham-Book'" font-size="10">dans le futur</tspan></text>
<rect x="-1133.956" y="-357.574" fill="none" stroke="#FFD25A" stroke-width="2" stroke-miterlimit="10" width="156" height="117"/>
<rect x="-1133.473" y="-402.865" fill="none" width="132.607" height="33.35"/>
<text transform="matrix(1 0 0 1 -1133.473 -394.1054)"><tspan x="0" y="0" font-family="'Gotham-Medium'" font-size="12">Déccès  </tspan><tspan x="0" y="17" font-family="'Gotham-Book'" font-size="10">Cérémonie</tspan></text>
<rect x="-1962.129" y="-118.874" fill="none" width="75.64" height="106.195"/>
<text transform="matrix(1 0 0 1 -1957.5631 -110.1144)" font-family="'Gotham-Black'" font-size="12">proche(s)</text>
<rect x="-1969.758" y="44.387" fill="none" width="75.64" height="106.195"/>
<text transform="matrix(1 0 0 1 -1938.0007 53.1474)"><tspan x="0" y="0" font-family="'Gotham-Black'" font-size="12">stand </tspan><tspan x="-13.08" y="14.4" font-family="'Gotham-Black'" font-size="12">diplome</tspan></text>
<rect x="-1969.758" y="185.126" fill="none" width="75.64" height="106.195"/>
<text transform="matrix(1 0 0 1 -1930.0809 193.8856)"><tspan x="0" y="0" font-family="'Gotham-Black'" font-size="12">Dans </tspan><tspan x="-34.476" y="14.4" font-family="'Gotham-Black'" font-size="12">l’isoloire</tspan></text>
<rect x="-1969.758" y="411.486" fill="none" width="75.64" height="106.195"/>
<text transform="matrix(1 0 0 1 -1917.3368 420.2465)"><tspan x="0" y="0" font-family="'Gotham-Black'" font-size="12">Les </tspan><tspan x="-27.792" y="14.4" font-family="'Gotham-Black'" font-size="12">autres</tspan></text>
<path d="M-1456.397-325.204c-1.812-0.243-6.362-0.24-6.362-0.24h-0.318c0,0-4.554-0.003-6.364,0.24
	c-3.163,0.43-5.582,0.38-5.582,6.492c0,2.068,0,33.066,0,36.125c0,3.061,2.578,5.072,5.973,5.072s5.973,0,5.973,0h0.318
	c0,0,2.578,0,5.973,0c3.393,0,5.969-2.011,5.969-5.072c0-3.059,0-34.057,0-36.125
	C-1450.817-324.823-1453.229-324.773-1456.397-325.204z M-1465.332-323.915h4.562c0.161,0,0.295,0.131,0.295,0.297
	c0,0.159-0.133,0.294-0.295,0.294h-4.562c-0.163,0-0.297-0.135-0.297-0.294C-1465.628-323.784-1465.495-323.915-1465.332-323.915z
	 M-1460.208-279.552c0,0.248-0.203,0.455-0.453,0.455h-4.51c-0.254,0-0.458-0.208-0.458-0.455v-0.649
	c0-0.248,0.204-0.454,0.458-0.454h4.51c0.25,0,0.453,0.206,0.453,0.454V-279.552L-1460.208-279.552z M-1452.693-283.902h-20.664
	v-36.172h20.664V-283.902z"/>
<path d="M-1031.016-121.441c0.243-1.812,0.24-6.362,0.24-6.362v-0.318c0,0,0.003-4.554-0.24-6.364
	c-0.43-3.163-0.38-5.582-6.492-5.582c-2.068,0-33.066,0-36.125,0c-3.061,0-5.072,2.578-5.072,5.973s0,5.973,0,5.973v0.318
	c0,0,0,2.578,0,5.973c0,3.393,2.011,5.969,5.072,5.969c3.059,0,34.057,0,36.125,0
	C-1031.396-115.862-1031.446-118.274-1031.016-121.441z M-1032.305-130.377v4.562c0,0.161-0.131,0.295-0.297,0.295
	c-0.159,0-0.294-0.133-0.294-0.295v-4.562c0-0.163,0.135-0.297,0.294-0.297C-1032.436-130.673-1032.305-130.54-1032.305-130.377z
	 M-1076.668-125.253c-0.248,0-0.455-0.203-0.455-0.453v-4.51c0-0.254,0.208-0.457,0.455-0.457h0.649
	c0.248,0,0.454,0.204,0.454,0.457v4.51c0,0.25-0.205,0.453-0.454,0.453H-1076.668L-1076.668-125.253z M-1072.318-117.737v-20.664
	h36.172v20.664H-1072.318z"/>
<path d="M-1383.684-299.282h-2.243c-0.88,0-1.612,0.65-1.741,1.495h-1.729v-2.723c0-1.706-1.319-3.109-2.99-3.245v-0.975
	c5.794-0.143,10.463-4.899,10.463-10.727c0-5.916-4.814-10.73-10.73-10.73c-5.214,0-9.736,3.839-10.615,8.968h-2.759
	c-0.878-5.129-5.369-8.969-10.541-8.969c-5.916,0-10.73,4.814-10.73,10.73c0,5.827,4.669,10.585,10.463,10.727v0.975
	c-1.671,0.136-2.99,1.54-2.99,3.245v4.217h-0.961v-1.228c0-0.972-0.79-1.762-1.762-1.762h-5.231c-0.971,0-1.762,0.79-1.762,1.762
	v13.453c0,0.972,0.79,1.762,1.762,1.762h5.231c0.972,0,1.762-0.79,1.762-1.762v-1.228h0.961v4.217c0,1.796,1.46,3.257,3.256,3.257
	h23.915c1.795,0,3.256-1.461,3.256-3.257v-8.701h1.729c0.129,0.845,0.86,1.494,1.741,1.494h2.243c0.971,0,1.761-0.79,1.761-1.761
	v-7.474C-1381.923-298.492-1382.713-299.282-1383.684-299.282z M-1422.814-284.335h-4.698v-12.919h4.698V-284.335z
	 M-1419.824-287.325h-0.961v-6.94h0.961V-287.325z M-1392.653-324.159c4.798,0,8.702,3.903,8.702,8.701
	c0,4.798-3.903,8.701-8.702,8.701c-4.797,0-8.701-3.903-8.701-8.701C-1401.355-320.255-1397.451-324.159-1392.653-324.159z
	 M-1405.842-315.19h2.462c0.129,5.111,3.924,9.496,8.966,10.349v1.075h-20.393v-1.076
	C-1409.766-305.706-1405.97-310.09-1405.842-315.19z M-1425.27-315.457c0-4.798,3.903-8.701,8.701-8.701
	c4.798,0,8.701,3.903,8.701,8.701s-3.903,8.701-8.701,8.701C-1421.366-306.756-1425.27-310.659-1425.27-315.457z M-1391.425-281.079
	c0,0.677-0.551,1.228-1.228,1.228h-23.916c-0.677,0-1.228-0.551-1.228-1.228v-19.431c0-0.677,0.55-1.228,1.228-1.228h23.916
	c0.677,0,1.228,0.55,1.228,1.228V-281.079z M-1387.688-291.809h-1.709v-3.95h1.709V-291.809L-1387.688-291.809z M-1383.951-290.314
	h-1.709v-6.94h1.709V-290.314L-1383.951-290.314z M-1392.653-310.706c2.62,0,4.751-2.132,4.751-4.751
	c0-2.62-2.132-4.751-4.751-4.751s-4.751,2.132-4.751,4.751C-1397.404-312.838-1395.273-310.706-1392.653-310.706z M-1392.653-318.18
	c1.501,0,2.723,1.221,2.723,2.723s-1.221,2.723-2.723,2.723s-2.723-1.221-2.723-2.723S-1394.154-318.18-1392.653-318.18z
	 M-1411.337-283.588h-2.99c-0.597,0-1.014,0.417-1.014,1.014c0,0.597,0.417,1.014,1.014,1.014h2.99c0.597,0,1.014-0.417,1.014-1.014
	C-1410.323-283.171-1410.74-283.588-1411.337-283.588z M-1400.127-293.303c-0.971,0-1.762,0.79-1.762,1.762
	c0,0.972,0.79,1.762,1.762,1.762s1.762-0.79,1.762-1.762C-1398.365-292.513-1399.155-293.303-1400.127-293.303z M-1394.147-299.282
	c-0.597,0-1.014,0.417-1.014,1.014s0.417,1.014,1.014,1.014c0.597,0,1.013-0.417,1.013-1.014S-1393.551-299.282-1394.147-299.282z
	 M-1405.358-299.282h-8.221c-0.971,0-1.762,0.79-1.762,1.762v10.462c0,0.971,0.79,1.762,1.762,1.762h8.221
	c0.972,0,1.761-0.791,1.761-1.762v-10.463C-1403.597-298.492-1404.386-299.282-1405.358-299.282z M-1405.625-287.325h-7.688v-9.929
	h7.688V-287.325z M-1400.127-299.282c-0.971,0-1.762,0.79-1.762,1.762c0,0.971,0.79,1.762,1.762,1.762s1.762-0.79,1.762-1.762
	C-1398.365-298.492-1399.155-299.282-1400.127-299.282z M-1411.817-315.457c0-2.62-2.131-4.751-4.751-4.751
	s-4.751,2.132-4.751,4.751c0,2.619,2.131,4.751,4.751,4.751S-1411.817-312.837-1411.817-315.457z M-1419.291-315.457
	c0-1.501,1.221-2.723,2.723-2.723c1.501,0,2.723,1.221,2.723,2.723s-1.221,2.723-2.723,2.723
	C-1418.069-312.735-1419.291-313.956-1419.291-315.457z"/>
<path d="M-1033.426-299.282h-2.243c-0.88,0-1.612,0.65-1.741,1.495h-1.729v-2.723c0-1.706-1.318-3.109-2.989-3.245v-0.975
	c5.794-0.143,10.463-4.899,10.463-10.727c0-5.916-4.814-10.73-10.73-10.73c-5.214,0-9.736,3.839-10.615,8.968h-2.759
	c-0.878-5.129-5.369-8.969-10.541-8.969c-5.917,0-10.73,4.814-10.73,10.73c0,5.827,4.669,10.585,10.463,10.727v0.975
	c-1.671,0.136-2.989,1.54-2.989,3.245v4.217h-0.961v-1.228c0-0.972-0.79-1.762-1.762-1.762h-5.231c-0.971,0-1.762,0.79-1.762,1.762
	v13.453c0,0.972,0.79,1.762,1.762,1.762h5.232c0.972,0,1.762-0.79,1.762-1.762v-1.228h0.961v4.217c0,1.796,1.461,3.257,3.256,3.257
	h23.916c1.795,0,3.256-1.461,3.256-3.257v-8.701h1.729c0.129,0.845,0.86,1.494,1.741,1.494h2.243c0.971,0,1.761-0.79,1.761-1.761
	v-7.474C-1031.664-298.492-1032.454-299.282-1033.426-299.282z M-1072.556-284.335h-4.698v-12.919h4.698V-284.335z
	 M-1069.566-287.325h-0.961v-6.94h0.961V-287.325z M-1042.394-324.159c4.798,0,8.702,3.903,8.702,8.701
	c0,4.798-3.903,8.701-8.702,8.701c-4.797,0-8.701-3.903-8.701-8.701C-1051.096-320.255-1047.192-324.159-1042.394-324.159z
	 M-1055.583-315.19h2.462c0.129,5.111,3.924,9.496,8.966,10.349v1.075h-20.393v-1.076
	C-1059.507-305.706-1055.711-310.09-1055.583-315.19z M-1075.011-315.457c0-4.798,3.903-8.701,8.701-8.701
	c4.798,0,8.701,3.903,8.701,8.701s-3.903,8.701-8.701,8.701C-1071.107-306.756-1075.011-310.659-1075.011-315.457z
	 M-1041.166-281.079c0,0.677-0.551,1.228-1.228,1.228h-23.915c-0.677,0-1.228-0.551-1.228-1.228v-19.431
	c0-0.677,0.55-1.228,1.228-1.228h23.915c0.677,0,1.228,0.55,1.228,1.228V-281.079z M-1037.429-291.809h-1.709v-3.95h1.709V-291.809
	L-1037.429-291.809z M-1033.693-290.314h-1.709v-6.94h1.709V-290.314L-1033.693-290.314z M-1042.394-310.706
	c2.62,0,4.751-2.132,4.751-4.751c0-2.62-2.132-4.751-4.751-4.751s-4.751,2.132-4.751,4.751
	C-1047.146-312.838-1045.014-310.706-1042.394-310.706z M-1042.394-318.18c1.501,0,2.723,1.221,2.723,2.723
	s-1.221,2.723-2.723,2.723s-2.723-1.221-2.723-2.723S-1043.896-318.18-1042.394-318.18z M-1061.078-283.588h-2.989
	c-0.597,0-1.014,0.417-1.014,1.014c0,0.597,0.417,1.014,1.014,1.014h2.989c0.597,0,1.014-0.417,1.014-1.014
	C-1060.064-283.171-1060.481-283.588-1061.078-283.588z M-1049.868-293.303c-0.971,0-1.762,0.79-1.762,1.762
	c0,0.972,0.79,1.762,1.762,1.762c0.972,0,1.762-0.79,1.762-1.762C-1048.106-292.513-1048.896-293.303-1049.868-293.303z
	 M-1043.889-299.282c-0.597,0-1.014,0.417-1.014,1.014s0.417,1.014,1.014,1.014c0.597,0,1.013-0.417,1.013-1.014
	S-1043.292-299.282-1043.889-299.282z M-1055.099-299.282h-8.221c-0.971,0-1.762,0.79-1.762,1.762v10.462
	c0,0.971,0.79,1.762,1.762,1.762h8.221c0.972,0,1.761-0.791,1.761-1.762v-10.463
	C-1053.338-298.492-1054.127-299.282-1055.099-299.282z M-1055.366-287.325h-7.688v-9.929h7.688V-287.325z M-1049.868-299.282
	c-0.971,0-1.762,0.79-1.762,1.762c0,0.971,0.79,1.762,1.762,1.762c0.972,0,1.762-0.79,1.762-1.762
	C-1048.106-298.492-1048.896-299.282-1049.868-299.282z M-1061.558-315.457c0-2.62-2.132-4.751-4.751-4.751s-4.75,2.132-4.75,4.751
	c0,2.619,2.131,4.751,4.75,4.751S-1061.558-312.837-1061.558-315.457z M-1069.032-315.457c0-1.501,1.221-2.723,2.723-2.723
	s2.723,1.221,2.723,2.723s-1.221,2.723-2.723,2.723C-1067.81-312.735-1069.032-313.956-1069.032-315.457z"/>
<rect x="-1133.956" y="-162.574" fill="none" stroke="#FFD25A" stroke-width="2" stroke-miterlimit="10" width="156" height="117"/>
<rect x="-1133.473" y="-207.865" fill="none" width="132.607" height="33.35"/>
<text transform="matrix(1 0 0 1 -1133.473 -199.1054)" font-family="'Gotham-Medium'" font-size="12">Présence Céremonie </text>
<text transform="matrix(1 0 0 1 -1133.473 -182.1054)" font-family="'Gotham-Book'" font-size="10">1</text>
<text transform="matrix(0.583 0 0 0.583 -1129.8929 -185.435)" font-family="'Gotham-Book'" font-size="10">ère </text>
<text transform="matrix(1 0 0 1 -1118.8802 -182.1054)" font-family="'Gotham-Book'" font-size="10">étape du deuil</text>
<g sketch:type="MSPage">
	<g transform="translate(-180.000000, -135.000000)" sketch:type="MSArtboardGroup">
		<path sketch:type="MSShapeGroup" d="M-1081.078-167.215v30.402h46.009v-30.402v-1.664l-6.274-4.801v-9.143l-8.365-8.365h-25.096
			v17.508l-6.274,4.801V-167.215z M-1078.987-167.85v2.4l4.183,3.207v-8.814L-1078.987-167.85z M-1037.161-167.85v2.4l-4.183,3.207
			v-8.814L-1037.161-167.85z M-1072.713-160.64l9.256,7.096h10.766l9.256-7.096v-20.091h-8.365v-8.365h-20.913V-160.64z
			 M-1037.161-162.822v23.036l-13.046-13.053L-1037.161-162.822z M-1039.237-138.905h-37.666l12.542-12.548h12.583
			L-1039.237-138.905z M-1078.987-139.778v-23.044l13.051,9.987L-1078.987-139.778z M-1044.271-182.822h-5.438v-5.437
			L-1044.271-182.822z M-1064.348-176.548l14.639,8.365l-14.639,8.365V-176.548z M-1062.256-172.951l8.365,4.768l-8.365,4.768
			V-172.951z"/>
	</g>
</g>
<g>
	<path d="M-1067.898-91.497c-4.048,0-7.383,3.334-7.383,7.383c0,4.049,3.334,7.383,7.383,7.383c4.049,0,7.383-3.334,7.383-7.383
		C-1060.516-88.163-1063.731-91.497-1067.898-91.497z M-1067.898-77.804c-3.453,0-6.192-2.858-6.192-6.192
		c0-3.453,2.858-6.192,6.192-6.192s6.192,2.858,6.192,6.192C-1061.587-80.661-1064.445-77.804-1067.898-77.804z"/>
	<path d="M-1041.702-91.497c-4.049,0-7.383,3.334-7.383,7.383c0,4.049,3.334,7.383,7.383,7.383c4.048,0,7.383-3.334,7.383-7.383
		C-1034.319-88.163-1037.534-91.497-1041.702-91.497z M-1041.702-77.804c-3.453,0-6.192-2.858-6.192-6.192
		c0-3.453,2.858-6.192,6.192-6.192c3.453,0,6.192,2.858,6.192,6.192C-1035.391-80.661-1038.249-77.804-1041.702-77.804z"/>
	<path d="M-1028.604-104h-52.393c-3.096,0-5.596,2.501-5.596,5.597v26.911c0,3.096,2.5,5.597,5.596,5.597h15.956
		c1.786,0,3.334-1.072,4.168-2.62l3.572-8.931c0.476-0.953,1.429-1.548,2.501-1.548c0.833,0,2.024,0.476,2.5,1.667l3.096,8.812
		c0.714,1.667,2.262,2.739,4.168,2.739h16.551c3.096,0,5.597-2.501,5.597-5.597v-26.911C-1022.888-101.5-1025.508-104-1028.604-104z
		 M-1025.269-71.374c0,1.786-1.429,3.215-3.215,3.215h-16.671c-0.833,0-1.548-0.476-1.905-1.191l-3.096-8.812
		c-0.834-1.905-2.62-3.215-4.763-3.215c-2.024,0-3.81,1.191-4.644,2.977l-3.572,8.931c-0.357,0.714-1.072,1.191-1.905,1.191h-15.956
		c-1.786,0-3.215-1.429-3.215-3.215v-26.792c0-1.786,1.429-3.215,3.215-3.215h52.393c1.786,0,3.215,1.429,3.215,3.215v26.911
		H-1025.269z"/>
	<path d="M-1041.702-89.711c-3.096,0-5.597,2.501-5.597,5.597c0,0.357,0.238,0.595,0.595,0.595c0.357,0,0.595-0.238,0.595-0.595
		c0-2.501,2.024-4.406,4.406-4.406c0.357,0,0.595-0.238,0.595-0.595C-1041.106-89.473-1041.345-89.711-1041.702-89.711z"/>
	<path d="M-1067.898-89.711c-3.096,0-5.596,2.501-5.596,5.597c0,0.357,0.238,0.595,0.595,0.595s0.595-0.238,0.595-0.595
		c0-2.501,2.024-4.406,4.406-4.406c0.357,0,0.595-0.238,0.595-0.595C-1067.303-89.473-1067.541-89.711-1067.898-89.711z"/>
</g>
<path d="M-1747.016,182.559c0.243-1.812,0.24-6.362,0.24-6.362v-0.318c0,0,0.003-4.554-0.24-6.364
	c-0.43-3.163-0.38-5.582-6.492-5.582c-2.068,0-33.066,0-36.125,0c-3.061,0-5.072,2.578-5.072,5.973s0,5.973,0,5.973v0.318
	c0,0,0,2.578,0,5.973c0,3.393,2.011,5.969,5.072,5.969c3.059,0,34.057,0,36.125,0
	C-1747.396,188.138-1747.446,185.726-1747.016,182.559z M-1748.305,173.623v4.562c0,0.161-0.131,0.294-0.297,0.294
	c-0.159,0-0.294-0.133-0.294-0.294v-4.562c0-0.163,0.135-0.297,0.294-0.297C-1748.436,173.327-1748.305,173.46-1748.305,173.623z
	 M-1792.668,178.747c-0.248,0-0.455-0.203-0.455-0.453v-4.51c0-0.254,0.208-0.457,0.455-0.457h0.649
	c0.248,0,0.454,0.204,0.454,0.457v4.51c0,0.25-0.205,0.453-0.454,0.453H-1792.668L-1792.668,178.747z M-1788.318,186.263v-20.664
	h36.172v20.664H-1788.318z"/>
<rect x="-1849.956" y="141.426" fill="none" stroke="#FFD25A" stroke-width="2" stroke-miterlimit="10" width="156" height="117"/>
<rect x="-1849.473" y="96.135" fill="none" width="132.607" height="33.35"/>
<text transform="matrix(1 0 0 1 -1849.473 104.8946)" font-family="'Gotham-Medium'" font-size="12">Présence Céremonie </text>
<text transform="matrix(1 0 0 1 -1849.473 121.8946)" font-family="'Gotham-Book'" font-size="10">1</text>
<text transform="matrix(0.583 0 0 0.583 -1845.8929 118.565)" font-family="'Gotham-Book'" font-size="10">ère </text>
<text transform="matrix(1 0 0 1 -1834.8802 121.8946)" font-family="'Gotham-Book'" font-size="10">étape du deuil</text>
<g>
	<path d="M-1783.898,212.503c-4.048,0-7.383,3.334-7.383,7.383c0,4.049,3.334,7.383,7.383,7.383c4.049,0,7.383-3.334,7.383-7.383
		C-1776.516,215.837-1779.731,212.503-1783.898,212.503z M-1783.898,226.196c-3.453,0-6.192-2.858-6.192-6.192
		c0-3.453,2.858-6.192,6.192-6.192s6.192,2.858,6.192,6.192C-1777.587,223.339-1780.445,226.196-1783.898,226.196z"/>
	<path d="M-1757.702,212.503c-4.049,0-7.383,3.334-7.383,7.383c0,4.049,3.334,7.383,7.383,7.383c4.048,0,7.383-3.334,7.383-7.383
		C-1750.319,215.837-1753.534,212.503-1757.702,212.503z M-1757.702,226.196c-3.453,0-6.192-2.858-6.192-6.192
		c0-3.453,2.858-6.192,6.192-6.192c3.453,0,6.192,2.858,6.192,6.192C-1751.391,223.339-1754.249,226.196-1757.702,226.196z"/>
	<path d="M-1744.604,200h-52.393c-3.096,0-5.596,2.501-5.596,5.597v26.911c0,3.096,2.5,5.597,5.596,5.597h15.956
		c1.786,0,3.334-1.072,4.168-2.62l3.572-8.931c0.476-0.953,1.429-1.548,2.501-1.548c0.833,0,2.024,0.476,2.5,1.667l3.096,8.812
		c0.714,1.667,2.262,2.739,4.168,2.739h16.551c3.096,0,5.597-2.501,5.597-5.597v-26.911C-1738.888,202.5-1741.508,200-1744.604,200z
		 M-1741.269,232.626c0,1.786-1.429,3.215-3.215,3.215h-16.671c-0.833,0-1.548-0.476-1.905-1.191l-3.096-8.812
		c-0.834-1.905-2.62-3.215-4.763-3.215c-2.024,0-3.81,1.191-4.644,2.977l-3.572,8.931c-0.357,0.714-1.072,1.191-1.905,1.191h-15.956
		c-1.786,0-3.215-1.429-3.215-3.215v-26.792c0-1.786,1.429-3.215,3.215-3.215h52.393c1.786,0,3.215,1.429,3.215,3.215v26.911
		H-1741.269z"/>
	<path d="M-1757.702,214.289c-3.096,0-5.597,2.501-5.597,5.597c0,0.357,0.238,0.595,0.595,0.595c0.357,0,0.595-0.238,0.595-0.595
		c0-2.501,2.024-4.406,4.406-4.406c0.357,0,0.595-0.238,0.595-0.595S-1757.345,214.289-1757.702,214.289z"/>
	<path d="M-1783.898,214.289c-3.096,0-5.596,2.501-5.596,5.597c0,0.357,0.238,0.595,0.595,0.595s0.595-0.238,0.595-0.595
		c0-2.501,2.024-4.406,4.406-4.406c0.357,0,0.595-0.238,0.595-0.595S-1783.541,214.289-1783.898,214.289z"/>
</g>
<rect x="-1850.956" y="359.426" fill="none" stroke="#FFD25A" stroke-width="2" stroke-miterlimit="10" width="156" height="117"/>
<rect x="-1850.473" y="314.135" fill="none" width="155.011" height="33.35"/>
<text transform="matrix(1 0 0 1 -1850.473 322.8946)"><tspan x="0" y="0" font-family="'Gotham-Medium'" font-size="12">Redifusion du contenu </tspan><tspan x="0" y="17" font-family="'Gotham-Book'" font-size="10">Sous-titré</tspan></text>
<rect x="-1662.021" y="314.135" fill="none" width="155.011" height="33.35"/>
<text transform="matrix(1 0 0 1 -1662.0216 322.8946)"><tspan x="0" y="0" font-family="'Gotham-Medium'" font-size="12">Explication cardboard </tspan><tspan x="0" y="17" font-family="'Gotham-Book'" font-size="10">Personnalisé</tspan></text>
<rect x="-1475.979" y="314.135" fill="none" width="155.011" height="33.35"/>
<text transform="matrix(1 0 0 1 -1475.9789 322.8946)"><tspan x="0" y="0" font-family="'Gotham-Medium'" font-size="12">Onrement </tspan><tspan x="0" y="17" font-family="'Gotham-Book'" font-size="10">Matériel éléctronique</tspan></text>
<path d="M-803.212-121.441c0.243-1.812,0.24-6.362,0.24-6.362v-0.318c0,0,0.003-4.554-0.24-6.364
	c-0.43-3.163-0.38-5.582-6.492-5.582c-2.068,0-33.066,0-36.125,0c-3.061,0-5.072,2.578-5.072,5.973s0,5.973,0,5.973v0.318
	c0,0,0,2.578,0,5.973c0,3.393,2.011,5.969,5.072,5.969c3.059,0,34.057,0,36.125,0C-803.592-115.862-803.642-118.274-803.212-121.441
	z M-804.501-130.377v4.562c0,0.161-0.131,0.295-0.297,0.295c-0.159,0-0.294-0.133-0.294-0.295v-4.562
	c0-0.163,0.135-0.297,0.294-0.297C-804.632-130.673-804.501-130.54-804.501-130.377z M-848.864-125.253
	c-0.248,0-0.455-0.203-0.455-0.453v-4.51c0-0.254,0.208-0.457,0.455-0.457h0.649c0.248,0,0.454,0.204,0.454,0.457v4.51
	c0,0.25-0.206,0.453-0.454,0.453H-848.864L-848.864-125.253z M-844.513-117.737v-20.664h36.172v20.664H-844.513z"/>
<rect x="-933.956" y="-162.574" fill="none" stroke="#FFD25A" stroke-width="2" stroke-miterlimit="10" width="156" height="117"/>
<rect x="-933.473" y="-207.865" fill="none" width="163.269" height="33.35"/>
<text transform="matrix(1 0 0 1 -933.473 -199.1059)"><tspan x="0" y="0" font-family="'Gotham-Medium'" font-size="12">Accès aux vidéox du défun </tspan><tspan x="0" y="17" font-family="'Gotham-Book'" font-size="10">Héritage / souvenirs</tspan></text>
<g>
	<path d="M-840.094-91.497c-4.049,0-7.383,3.334-7.383,7.383c0,4.049,3.334,7.383,7.383,7.383c4.049,0,7.383-3.334,7.383-7.383
		C-832.712-88.163-835.927-91.497-840.094-91.497z M-840.094-77.804c-3.453,0-6.192-2.858-6.192-6.192
		c0-3.453,2.858-6.192,6.192-6.192s6.192,2.858,6.192,6.192C-833.783-80.661-836.641-77.804-840.094-77.804z"/>
	<path d="M-813.898-91.497c-4.049,0-7.383,3.334-7.383,7.383c0,4.049,3.334,7.383,7.383,7.383s7.383-3.334,7.383-7.383
		C-806.515-88.163-809.73-91.497-813.898-91.497z M-813.898-77.804c-3.453,0-6.192-2.858-6.192-6.192
		c0-3.453,2.858-6.192,6.192-6.192c3.453,0,6.192,2.858,6.192,6.192C-807.587-80.661-810.445-77.804-813.898-77.804z"/>
	<path d="M-800.799-104h-52.393c-3.096,0-5.597,2.501-5.597,5.597v26.911c0,3.096,2.501,5.597,5.597,5.597h15.956
		c1.786,0,3.334-1.072,4.168-2.62l3.572-8.931c0.476-0.953,1.429-1.548,2.501-1.548c0.833,0,2.024,0.476,2.501,1.667l3.096,8.812
		c0.714,1.667,2.262,2.739,4.168,2.739h16.551c3.096,0,5.597-2.501,5.597-5.597v-26.911C-795.084-101.5-797.704-104-800.799-104z
		 M-797.465-71.374c0,1.786-1.429,3.215-3.215,3.215h-16.671c-0.833,0-1.548-0.476-1.905-1.191l-3.096-8.812
		c-0.833-1.905-2.62-3.215-4.763-3.215c-2.024,0-3.81,1.191-4.644,2.977l-3.572,8.931c-0.357,0.714-1.072,1.191-1.905,1.191h-15.956
		c-1.786,0-3.215-1.429-3.215-3.215v-26.792c0-1.786,1.429-3.215,3.215-3.215h52.393c1.786,0,3.215,1.429,3.215,3.215v26.911
		H-797.465z"/>
	<path d="M-813.898-89.711c-3.096,0-5.597,2.501-5.597,5.597c0,0.357,0.238,0.595,0.595,0.595s0.595-0.238,0.595-0.595
		c0-2.501,2.024-4.406,4.406-4.406c0.357,0,0.595-0.238,0.595-0.595C-813.302-89.473-813.541-89.711-813.898-89.711z"/>
	<path d="M-840.094-89.711c-3.096,0-5.597,2.501-5.597,5.597c0,0.357,0.238,0.595,0.595,0.595s0.595-0.238,0.595-0.595
		c0-2.501,2.024-4.406,4.406-4.406c0.357,0,0.595-0.238,0.595-0.595C-839.499-89.473-839.737-89.711-840.094-89.711z"/>
</g>
<g>
	<g>
		<line fill="none" stroke="#000000" stroke-miterlimit="10" x1="-1106.956" y1="-4.074" x2="-1112.956" y2="-4.074"/>
		
			<line fill="none" stroke="#000000" stroke-miterlimit="10" stroke-dasharray="12,12" x1="-1124.956" y1="-4.074" x2="-1957.956" y2="-4.074"/>
		<line fill="none" stroke="#000000" stroke-miterlimit="10" x1="-1963.956" y1="-4.074" x2="-1969.956" y2="-4.074"/>
	</g>
</g>
<g>
	<g>
		<line fill="none" stroke="#000000" stroke-miterlimit="10" x1="-1320.956" y1="278.926" x2="-1326.956" y2="278.926"/>
		
			<line fill="none" stroke="#000000" stroke-miterlimit="10" stroke-dasharray="12,12" x1="-1338.956" y1="278.926" x2="-1838.956" y2="278.926"/>
		<line fill="none" stroke="#000000" stroke-miterlimit="10" x1="-1844.956" y1="278.926" x2="-1850.956" y2="278.926"/>
	</g>
</g>
<path d="M-899.17-144.991c-6.222,0-11.263,5.042-11.263,11.263c0,2.431,0.787,5.221,2.11,7.08l9.154,13.838l9.154-13.838
	c1.323-1.859,2.11-4.613,2.11-7.08C-887.907-139.949-892.949-144.991-899.17-144.991z M-899.17-129.436
	c-2.36,0-4.291-1.931-4.291-4.291s1.931-4.291,4.291-4.291c2.36,0,4.291,1.931,4.291,4.291S-896.81-129.436-899.17-129.436z"/>
<g>
	<path d="M-899.17-67.97c8.562,0,15.55-6.988,15.55-15.55s-6.988-15.55-15.55-15.55c-8.561,0-15.55,6.988-15.55,15.55
		S-907.732-67.97-899.17-67.97z M-899.17-97.24c7.574,0,13.72,6.147,13.72,13.72c0,7.574-6.147,13.72-13.72,13.72
		c-7.574,0-13.72-6.147-13.72-13.72S-906.744-97.24-899.17-97.24z"/>
	<polygon points="-891.853,-84.434 -898.256,-84.434 -898.256,-94.496 -900.085,-94.496 -900.085,-82.605 -891.853,-82.605 	"/>
</g>
<path d="M-1531.212,182.559c0.243-1.812,0.24-6.362,0.24-6.362v-0.318c0,0,0.003-4.554-0.24-6.364
	c-0.43-3.163-0.38-5.582-6.492-5.582c-2.068,0-33.066,0-36.125,0c-3.061,0-5.072,2.578-5.072,5.973s0,5.973,0,5.973v0.318
	c0,0,0,2.578,0,5.973c0,3.393,2.011,5.969,5.072,5.969c3.059,0,34.057,0,36.125,0
	C-1531.592,188.138-1531.642,185.726-1531.212,182.559z M-1532.501,173.623v4.562c0,0.161-0.131,0.294-0.297,0.294
	c-0.159,0-0.294-0.133-0.294-0.294v-4.562c0-0.163,0.135-0.297,0.294-0.297C-1532.632,173.327-1532.501,173.46-1532.501,173.623z
	 M-1576.864,178.747c-0.248,0-0.455-0.203-0.455-0.453v-4.51c0-0.254,0.208-0.457,0.455-0.457h0.649
	c0.248,0,0.454,0.204,0.454,0.457v4.51c0,0.25-0.206,0.453-0.454,0.453H-1576.864L-1576.864,178.747z M-1572.513,186.263v-20.664
	h36.172v20.664H-1572.513z"/>
<rect x="-1661.956" y="141.426" fill="none" stroke="#FFD25A" stroke-width="2" stroke-miterlimit="10" width="156" height="117"/>
<rect x="-1662.473" y="96.135" fill="none" width="163.269" height="33.35"/>
<text transform="matrix(1 0 0 1 -1662.473 104.8941)"><tspan x="0" y="0" font-family="'Gotham-Medium'" font-size="12">Accès aux vidéox du défun </tspan><tspan x="0" y="17" font-family="'Gotham-Book'" font-size="10">Héritage / souvenirs</tspan></text>
<rect x="-1681.329" y="195.628" fill="none" width="13.311" height="27.754"/>
<text transform="matrix(1 0 0 1 -1681.3285 204.3872)" font-family="'Gotham-Medium'" font-size="12">+</text>
<g>
	<path d="M-1568.094,212.503c-4.048,0-7.383,3.334-7.383,7.383c0,4.049,3.334,7.383,7.383,7.383c4.049,0,7.383-3.334,7.383-7.383
		C-1560.712,215.837-1563.927,212.503-1568.094,212.503z M-1568.094,226.196c-3.453,0-6.192-2.858-6.192-6.192
		c0-3.453,2.858-6.192,6.192-6.192s6.192,2.858,6.192,6.192C-1561.783,223.339-1564.641,226.196-1568.094,226.196z"/>
	<path d="M-1541.898,212.503c-4.049,0-7.383,3.334-7.383,7.383c0,4.049,3.334,7.383,7.383,7.383c4.048,0,7.383-3.334,7.383-7.383
		C-1534.515,215.837-1537.73,212.503-1541.898,212.503z M-1541.898,226.196c-3.453,0-6.192-2.858-6.192-6.192
		c0-3.453,2.858-6.192,6.192-6.192c3.453,0,6.192,2.858,6.192,6.192C-1535.587,223.339-1538.445,226.196-1541.898,226.196z"/>
	<path d="M-1528.799,200h-52.393c-3.096,0-5.597,2.501-5.597,5.597v26.911c0,3.096,2.501,5.597,5.597,5.597h15.956
		c1.786,0,3.334-1.072,4.168-2.62l3.572-8.931c0.476-0.953,1.429-1.548,2.5-1.548c0.834,0,2.024,0.476,2.501,1.667l3.096,8.812
		c0.714,1.667,2.262,2.739,4.168,2.739h16.552c3.096,0,5.597-2.501,5.597-5.597v-26.911C-1523.084,202.5-1525.703,200-1528.799,200z
		 M-1525.465,232.626c0,1.786-1.429,3.215-3.215,3.215h-16.671c-0.833,0-1.548-0.476-1.905-1.191l-3.096-8.812
		c-0.834-1.905-2.62-3.215-4.763-3.215c-2.024,0-3.81,1.191-4.644,2.977l-3.572,8.931c-0.357,0.714-1.072,1.191-1.905,1.191h-15.956
		c-1.786,0-3.215-1.429-3.215-3.215v-26.792c0-1.786,1.429-3.215,3.215-3.215h52.393c1.786,0,3.215,1.429,3.215,3.215v26.911
		H-1525.465z"/>
	<path d="M-1541.898,214.289c-3.096,0-5.597,2.501-5.597,5.597c0,0.357,0.238,0.595,0.595,0.595s0.595-0.238,0.595-0.595
		c0-2.501,2.024-4.406,4.406-4.406c0.357,0,0.595-0.238,0.595-0.595S-1541.541,214.289-1541.898,214.289z"/>
	<path d="M-1568.094,214.289c-3.096,0-5.596,2.501-5.596,5.597c0,0.357,0.238,0.595,0.595,0.595c0.357,0,0.595-0.238,0.595-0.595
		c0-2.501,2.024-4.406,4.406-4.406c0.357,0,0.595-0.238,0.595-0.595S-1567.737,214.289-1568.094,214.289z"/>
</g>
<rect x="-1661.956" y="359.426" fill="none" stroke="#FFD25A" stroke-width="2" stroke-miterlimit="10" width="156" height="117"/>
<rect x="-1476.956" y="359.426" fill="none" stroke="#FFD25A" stroke-width="2" stroke-miterlimit="10" width="156" height="117"/>
<g>
	<path d="M-1593.996,411.391c-4.048,0-7.383,3.334-7.383,7.383c0,4.049,3.334,7.383,7.383,7.383c4.049,0,7.383-3.334,7.383-7.383
		C-1586.614,414.725-1589.829,411.391-1593.996,411.391z M-1593.996,425.085c-3.453,0-6.192-2.858-6.192-6.192
		c0-3.453,2.858-6.192,6.192-6.192s6.192,2.858,6.192,6.192C-1587.685,422.227-1590.543,425.085-1593.996,425.085z"/>
	<path d="M-1567.8,411.391c-4.049,0-7.383,3.334-7.383,7.383c0,4.049,3.334,7.383,7.383,7.383c4.048,0,7.383-3.334,7.383-7.383
		C-1560.417,414.725-1563.632,411.391-1567.8,411.391z M-1567.8,425.085c-3.453,0-6.192-2.858-6.192-6.192
		c0-3.453,2.858-6.192,6.192-6.192c3.453,0,6.192,2.858,6.192,6.192C-1561.489,422.227-1564.347,425.085-1567.8,425.085z"/>
	<path d="M-1554.702,398.888h-52.393c-3.096,0-5.596,2.501-5.596,5.597v26.911c0,3.096,2.5,5.597,5.596,5.597h15.956
		c1.786,0,3.334-1.072,4.168-2.62l3.572-8.931c0.476-0.953,1.429-1.548,2.501-1.548c0.833,0,2.024,0.476,2.5,1.667l3.096,8.812
		c0.714,1.667,2.262,2.739,4.168,2.739h16.551c3.096,0,5.597-2.501,5.597-5.597v-26.911
		C-1548.986,401.389-1551.606,398.888-1554.702,398.888z M-1551.367,431.515c0,1.786-1.429,3.215-3.215,3.215h-16.671
		c-0.833,0-1.548-0.476-1.905-1.191l-3.096-8.812c-0.834-1.905-2.62-3.215-4.763-3.215c-2.024,0-3.81,1.191-4.644,2.977
		l-3.572,8.931c-0.357,0.714-1.072,1.191-1.905,1.191h-15.956c-1.786,0-3.215-1.429-3.215-3.215v-26.792
		c0-1.786,1.429-3.215,3.215-3.215h52.393c1.786,0,3.215,1.429,3.215,3.215v26.911H-1551.367z"/>
	<path d="M-1567.8,413.177c-3.096,0-5.597,2.501-5.597,5.597c0,0.357,0.238,0.595,0.595,0.595s0.595-0.238,0.595-0.595
		c0-2.501,2.024-4.406,4.406-4.406c0.357,0,0.595-0.238,0.595-0.595C-1567.204,413.415-1567.443,413.177-1567.8,413.177z"/>
	<path d="M-1593.996,413.177c-3.096,0-5.596,2.501-5.596,5.597c0,0.357,0.238,0.595,0.595,0.595s0.595-0.238,0.595-0.595
		c0-2.501,2.024-4.406,4.406-4.406c0.357,0,0.595-0.238,0.595-0.595C-1593.401,413.415-1593.639,413.177-1593.996,413.177z"/>
</g>
<path d="M-1627.17,161.009c-6.222,0-11.264,5.042-11.264,11.263c0,2.431,0.787,5.221,2.11,7.08l9.154,13.838l9.154-13.838
	c1.323-1.859,2.11-4.613,2.11-7.08C-1615.907,166.051-1620.949,161.009-1627.17,161.009z M-1627.17,176.564
	c-2.36,0-4.291-1.931-4.291-4.291s1.931-4.291,4.291-4.291s4.291,1.931,4.291,4.291S-1624.81,176.564-1627.17,176.564z"/>
<g>
	<path d="M-1627.17,236.03c8.561,0,15.55-6.988,15.55-15.55s-6.988-15.55-15.55-15.55c-8.562,0-15.55,6.988-15.55,15.55
		C-1642.72,229.042-1635.732,236.03-1627.17,236.03z M-1627.17,206.76c7.574,0,13.72,6.147,13.72,13.72s-6.147,13.72-13.72,13.72
		s-13.72-6.147-13.72-13.72S-1634.744,206.76-1627.17,206.76z"/>
	<polygon points="-1619.853,219.566 -1626.256,219.566 -1626.256,209.504 -1628.085,209.504 -1628.085,221.395 -1619.853,221.395 	
		"/>
</g>
<g>
	<path d="M-1732.128,385.835h-80.685c-2.096,0-3.799,1.697-3.799,3.794v47.703c0,2.096,1.703,3.794,3.799,3.794h34.409l-3.129,8.017
		h-1.319v1.023h19.94v-1.023h-1.324l-3.17-8.017h35.278c2.096,0,3.794-1.697,3.794-3.794v-47.703
		C-1728.329,387.533-1730.031,385.835-1732.128,385.835z M-1775.08,435.67c0-1.442,1.171-2.613,2.613-2.613
		c1.442,0,2.608,1.171,2.608,2.613s-1.166,2.608-2.608,2.608C-1773.91,438.277-1775.08,437.111-1775.08,435.67z M-1732.128,429.263
		h-80.685v-39.635h80.685V429.263z"/>
</g>
<path d="M-1367.776,396.228v-2.665h-6.661v-6.662h-2.665v6.662h-5.329v-6.662h-2.665v6.662h-5.329v-6.662h-2.665v6.662h-5.329
	v-6.662h-2.665v6.662h-5.329v-6.662h-2.665v6.662h-5.329v-6.662h-2.665v6.662h-5.329v-6.662h-2.665v6.662h-6.662v2.665h6.662v5.329
	h-6.662v2.665h6.662v5.329h-6.662v2.665h6.662v5.329h-6.662v2.665h6.662v5.328h-6.662v2.665h6.662v5.329h-6.662v2.665h6.662v5.329
	h-6.662v2.665h6.662v6.662h2.665v-6.662h5.329v6.662h2.665v-6.662h5.329v6.662h2.665v-6.662h5.329v6.662h2.665v-6.662h5.329v6.662
	h2.665v-6.662h5.329v6.662h2.665v-6.662h5.329v6.662h2.665v-6.662h6.661v-2.665h-6.661v-5.329h6.661v-2.665h-6.661v-5.329h6.661
	v-2.665h-6.661v-5.328h6.661v-2.665h-6.661v-5.329h6.661v-2.665h-6.661v-5.329h6.661v-2.665h-6.661v-5.329H-1367.776z
	 M-1385.096,396.228v5.329h-5.329v-5.329H-1385.096z M-1401.083,420.21v5.328h-5.329v-5.328H-1401.083z M-1406.413,417.545v-5.329
	h5.329v5.329H-1406.413z M-1398.419,420.21h5.329v5.328h-5.329V420.21z M-1398.419,417.545v-5.329h5.329v5.329H-1398.419z
	 M-1398.419,409.551v-5.329h5.329v5.329H-1398.419z M-1401.083,409.551h-5.329v-5.329h5.329V409.551z M-1409.077,409.551h-5.329
	v-5.329h5.329V409.551z M-1409.077,412.216v5.329h-5.329v-5.329H-1409.077z M-1409.077,420.21v5.328h-5.329v-5.328H-1409.077z
	 M-1409.077,428.203v5.329h-5.329v-5.329H-1409.077z M-1406.413,428.203h5.329v5.329h-5.329V428.203z M-1398.419,428.203h5.329
	v5.329h-5.329V428.203z M-1390.425,428.203h5.329v5.329h-5.329V428.203z M-1390.425,425.538v-5.328h5.329v5.328H-1390.425z
	 M-1390.425,417.545v-5.329h5.329v5.329H-1390.425z M-1390.425,409.551v-5.329h5.329v5.329H-1390.425z M-1393.09,396.228v5.329
	h-5.329v-5.329H-1393.09z M-1401.083,396.228v5.329h-5.329v-5.329H-1401.083z M-1409.077,396.228v5.329h-5.329v-5.329H-1409.077z
	 M-1422.4,396.228h5.329v5.329h-5.329V396.228z M-1422.4,404.222h5.329v5.329h-5.329V404.222z M-1422.4,412.216h5.329v5.329h-5.329
	V412.216z M-1422.4,420.21h5.329v5.328h-5.329V420.21z M-1422.4,428.203h5.329v5.329h-5.329V428.203z M-1422.4,441.526v-5.329h5.329
	v5.329H-1422.4z M-1414.406,441.526v-5.329h5.329v5.329H-1414.406z M-1406.413,441.526v-5.329h5.329v5.329H-1406.413z
	 M-1398.419,441.526v-5.329h5.329v5.329H-1398.419z M-1390.425,441.526v-5.329h5.329v5.329H-1390.425z M-1377.102,441.526h-5.329
	v-5.329h5.329V441.526z M-1377.102,433.532h-5.329v-5.329h5.329V433.532z M-1377.102,425.538h-5.329v-5.328h5.329V425.538z
	 M-1377.102,417.545h-5.329v-5.329h5.329V417.545z M-1377.102,409.551h-5.329v-5.329h5.329V409.551z M-1377.102,401.557h-5.329
	v-5.329h5.329V401.557z"/>
<g>
	<g>
		<path fill="#F4F4F4" d="M-2320.956,129.426h-2c0-7.577-2.162-13.43-6.427-17.394c-4.963-4.615-12.71-6.57-23.042-5.82
			l-0.146-1.994c10.906-0.798,19.162,1.34,24.55,6.35C-2323.333,114.926-2320.956,121.271-2320.956,129.426z"/>
	</g>
	<g>
		<g>
			<polygon fill="#F4F4F4" points="-2351.592,100.183 -2359.623,106.093 -2350.49,110.094 			"/>
		</g>
	</g>
</g>
<polygon fill="#FFFFFF" stroke="#000000" stroke-width="2" stroke-miterlimit="10" points="-516.956,244.426 -481.956,262.76 
	-512.956,291.426 -500.623,263.426 "/>
<polygon fill="#FFFFFF" stroke="#000000" stroke-width="2" stroke-miterlimit="10" points="-482.956,343.426 -517.956,325.093 
	-486.956,296.426 -499.29,324.426 "/>
<polygon fill="#FFFFFF" stroke="#000000" stroke-width="2" stroke-miterlimit="10" points="9.044,6.426 44.044,24.76 13.044,53.426 
	25.377,25.426 "/>
</svg>
