<?xml version="1.0" encoding="utf-8"?>
<!-- Generator: Adobe Illustrator 17.0.0, SVG Export Plug-In . SVG Version: 6.00 Build 0)  -->
<!DOCTYPE svg PUBLIC "-//W3C//DTD SVG 1.1//EN" "http://www.w3.org/Graphics/SVG/1.1/DTD/svg11.dtd">
<svg version="1.1" xmlns="http://www.w3.org/2000/svg" xmlns:xlink="http://www.w3.org/1999/xlink" x="0px" y="0px"
	 width="341.643px" height="341.638px" viewBox="0 0 341.643 341.638" enable-background="new 0 0 341.643 341.638"
	 xml:space="preserve">
<g id="flaque">
	<path d="M185.52,210.469c1.284-4.682,0.841-10.99-4.654-4.906c-5.495,6.084-8.243,16.093-11.186,25.317
		c-2.944,9.224-9.224,3.729-9.42-1.766c-0.182-5.092,1.652-7.31,5.103-16.093c5.04-12.828-3.729-31.008-10.401-38.466
		s-6.28-9.813,0.393-11.186c6.673-1.374,5.691-12.56-4.71-12.168c-10.401,0.393-15.112-1.766-20.999-7.261
		c-5.888-5.495-2.355-26.494,6.28-15.308c8.635,11.186,11.383,6.869,12.953,2.355c1.57-4.514,0-34.344,12.168-10.598
		c12.168,23.747,12.364,38.466,21.392,38.269c9.028-0.196,3.14-10.794,12.953-0.589c9.813,10.205,11.579,2.159,12.953-1.963
		c1.374-4.121,3.729-18.252,6.084-1.178s-4.318,23.747-12.168,29.438c-7.85,5.691-10.8,12.731-10.99,23.747
		C191.071,219.497,182.184,222.637,185.52,210.469z"/>
</g>
<g id="ombre">
	<circle fill="none" cx="172.036" cy="170.797" r="78.69"/>
	<text transform="matrix(0.8274 0.5616 -0.5616 0.8274 203.3676 96.9342)"><tspan x="0" y="0" font-family="'Artifika-Medium'" font-size="42">A</tspan><tspan x="36.255" y="1.431" font-family="'Artifika-Medium'" font-size="42" rotate="25.399">u</tspan><tspan x="66.59" y="17.129" font-family="'Artifika-Medium'" font-size="42" rotate="49.869">d</tspan><tspan x="86.953" y="44.108" font-family="'Artifika-Medium'" font-size="42" rotate="71.487">r</tspan><tspan x="94.664" y="68.993" font-family="'Artifika-Medium'" font-size="42" rotate="92.05">e</tspan><tspan x="92.573" y="99.42" font-family="'Artifika-Medium'" font-size="42" rotate="114.417">y</tspan><tspan x="77.643" y="127.412" font-family="'Artifika-Medium'" font-size="42" rotate="132.234"> </tspan><tspan x="65.516" y="140.271" font-family="'Artifika-Medium'" font-size="42" rotate="147.847">-</tspan><tspan x="43.635" y="152.441" font-family="'Artifika-Medium'" font-size="42" rotate="163.277"> </tspan><tspan x="27.056" y="157.985" font-family="'Artifika-Medium'" font-size="42" rotate="-177.554">B</tspan><tspan x="-7.772" y="154.898" font-family="'Artifika-Medium'" font-size="42" rotate="-153.94">e</tspan><tspan x="-34.575" y="139.782" font-family="'Artifika-Medium'" font-size="42" rotate="-135.591">l</tspan><tspan x="-48.745" y="125.794" font-family="'Artifika-Medium'" font-size="42" rotate="-117.141">a</tspan><tspan x="-61.998" y="98.411" font-family="'Artifika-Medium'" font-size="42" rotate="-93.881">u</tspan><tspan x="-63.099" y="64.276" font-family="'Artifika-Medium'" font-size="42" rotate="-69.343">d</tspan><tspan x="-48.98" y="33.311" font-family="'Artifika-Medium'" font-size="42" rotate="-50.756"> </tspan><tspan x="-37.527" y="19.824" font-family="'Artifika-Medium'" font-size="42" rotate="-35.145">-</tspan><tspan x="-16.251" y="6.606" font-family="'Artifika-Medium'" font-size="42" rotate="-20.531"> </tspan></text>
</g>
<g id="text">
	<circle fill="none" cx="172.928" cy="170.836" r="78.69"/>
	<text transform="matrix(0.828 0.5607 -0.5607 0.828 204.1813 96.94)"><tspan x="0" y="0" fill="#FFFFFF" stroke="#000000" stroke-width="1.25" stroke-linejoin="bevel" stroke-miterlimit="1" font-family="'Artifika-Medium'" font-size="42">A</tspan><tspan x="36.256" y="1.429" fill="#FFFFFF" stroke="#000000" stroke-width="1.25" stroke-linejoin="bevel" stroke-miterlimit="1" font-family="'Artifika-Medium'" font-size="42" rotate="25.399">u</tspan><tspan x="66.59" y="17.129" fill="#FFFFFF" stroke="#000000" stroke-width="1.25" stroke-linejoin="bevel" stroke-miterlimit="1" font-family="'Artifika-Medium'" font-size="42" rotate="49.869">d</tspan><tspan x="86.953" y="44.107" fill="#FFFFFF" stroke="#000000" stroke-width="1.25" stroke-linejoin="bevel" stroke-miterlimit="1" font-family="'Artifika-Medium'" font-size="42" rotate="71.489">r</tspan><tspan x="94.665" y="68.992" fill="#FFFFFF" stroke="#000000" stroke-width="1.25" stroke-linejoin="bevel" stroke-miterlimit="1" font-family="'Artifika-Medium'" font-size="42" rotate="92.052">e</tspan><tspan x="92.573" y="99.419" fill="#FFFFFF" stroke="#000000" stroke-width="1.25" stroke-linejoin="bevel" stroke-miterlimit="1" font-family="'Artifika-Medium'" font-size="42" rotate="114.417">y</tspan><tspan x="77.645" y="127.411" fill="#FFFFFF" stroke="#000000" stroke-width="1.25" stroke-linejoin="bevel" stroke-miterlimit="1" font-family="'Artifika-Medium'" font-size="42" rotate="132.232"> </tspan><tspan x="65.516" y="140.271" fill="#FFFFFF" stroke="#000000" stroke-width="1.25" stroke-linejoin="bevel" stroke-miterlimit="1" font-family="'Artifika-Medium'" font-size="42" rotate="147.847">-</tspan><tspan x="43.665" y="152.43" fill="#FFFFFF" stroke="#000000" stroke-width="1.25" stroke-linejoin="bevel" stroke-miterlimit="1" font-family="'Artifika-Medium'" font-size="42" rotate="163.254"> </tspan><tspan x="27.057" y="157.986" fill="#FFFFFF" stroke="#000000" stroke-width="1.25" stroke-linejoin="bevel" stroke-miterlimit="1" font-family="'Artifika-Medium'" font-size="42" rotate="-177.554">B</tspan><tspan x="-7.771" y="154.899" fill="#FFFFFF" stroke="#000000" stroke-width="1.25" stroke-linejoin="bevel" stroke-miterlimit="1" font-family="'Artifika-Medium'" font-size="42" rotate="-153.94">e</tspan><tspan x="-34.576" y="139.783" fill="#FFFFFF" stroke="#000000" stroke-width="1.25" stroke-linejoin="bevel" stroke-miterlimit="1" font-family="'Artifika-Medium'" font-size="42" rotate="-135.591">l</tspan><tspan x="-48.745" y="125.795" fill="#FFFFFF" stroke="#000000" stroke-width="1.25" stroke-linejoin="bevel" stroke-miterlimit="1" font-family="'Artifika-Medium'" font-size="42" rotate="-117.141">a</tspan><tspan x="-61.992" y="98.442" fill="#FFFFFF" stroke="#000000" stroke-width="1.25" stroke-linejoin="bevel" stroke-miterlimit="1" font-family="'Artifika-Medium'" font-size="42" rotate="-93.901">u</tspan><tspan x="-63.105" y="64.306" fill="#FFFFFF" stroke="#000000" stroke-width="1.25" stroke-linejoin="bevel" stroke-miterlimit="1" font-family="'Artifika-Medium'" font-size="42" rotate="-69.363">d</tspan><tspan x="-48.979" y="33.311" fill="#FFFFFF" stroke="#000000" stroke-width="1.25" stroke-linejoin="bevel" stroke-miterlimit="1" font-family="'Artifika-Medium'" font-size="42" rotate="-50.756"> </tspan><tspan x="-37.527" y="19.824" fill="#FFFFFF" stroke="#000000" stroke-width="1.25" stroke-linejoin="bevel" stroke-miterlimit="1" font-family="'Artifika-Medium'" font-size="42" rotate="-35.146">-</tspan><tspan x="-16.281" y="6.617" fill="#FFFFFF" stroke="#000000" stroke-width="1.25" stroke-linejoin="bevel" stroke-miterlimit="1" font-family="'Artifika-Medium'" font-size="42" rotate="-20.533"> </tspan></text>
</g>
</svg>
